<svg width="32" height="32" viewBox="0 0 32 32" fill="none" xmlns="http://www.w3.org/2000/svg">
<g clip-path="url(#clip0_2087_495)">
<path d="M27.5481 25.8352C14.5945 31.9999 6.55541 26.842 1.40932 23.7092C1.09088 23.5118 0.549648 23.7554 1.01924 24.2948C2.73366 26.3736 8.35218 31.384 15.686 31.384C23.0248 31.384 27.3908 27.3796 27.9369 26.681C28.4794 25.9884 28.0962 25.6063 27.548 25.8352H27.5481ZM31.1861 23.8261C30.8382 23.3731 29.0708 23.2886 27.9586 23.4253C26.8446 23.558 25.1725 24.2388 25.3179 24.6476C25.3925 24.8007 25.5448 24.732 26.31 24.6632C27.0774 24.5866 29.2271 24.3153 29.675 24.9009C30.125 25.4905 28.9894 28.2992 28.782 28.7522C28.5816 29.2052 28.8585 29.322 29.2349 29.0203C29.6062 28.7187 30.2783 27.9377 30.7293 26.8324C31.1772 25.7212 31.4503 24.171 31.1859 23.8261H31.1861Z" fill="#FF9900"/>
<path fill-rule="evenodd" clip-rule="evenodd" d="M18.8383 13.256C18.8383 14.8735 18.8792 16.2225 18.0616 17.659C17.4017 18.827 16.3564 19.5452 15.1885 19.5452C13.5942 19.5452 12.6658 18.3306 12.6658 16.5378C12.6658 12.999 15.8366 12.3567 18.8383 12.3567V13.256ZM23.0253 23.3761C22.7508 23.6213 22.3537 23.6389 22.0442 23.4753C20.6661 22.3308 20.4208 21.7994 19.6617 20.7073C17.3842 23.0315 15.7725 23.7264 12.8177 23.7264C9.32555 23.7264 6.60425 21.5716 6.60425 17.2561C6.60425 13.8867 8.43216 11.5917 11.0306 10.4705C13.2848 9.47768 16.4324 9.30252 18.8383 9.02815V8.49086C18.8383 7.50391 18.9141 6.33602 18.3361 5.48348C17.828 4.71847 16.8586 4.40311 16.006 4.40311C14.4235 4.40311 13.0103 5.21478 12.6658 6.89658C12.5956 7.2704 12.3212 7.63833 11.9475 7.6558L7.91813 7.22375C7.5795 7.14768 7.2058 6.87331 7.29922 6.3535C8.2277 1.47168 12.6365 0 16.584 0C18.6046 0 21.244 0.537295 22.8383 2.06732C24.8588 3.95346 24.6661 6.47031 24.6661 9.2091V15.6794C24.6661 17.624 25.472 18.4765 26.2311 19.5277C26.4996 19.9014 26.5581 20.3512 26.2194 20.6314C25.3726 21.3379 23.866 22.6519 23.0368 23.3878L23.0251 23.3761" fill="black"/>
<path d="M27.5481 25.8352C14.5945 31.9999 6.55541 26.842 1.40932 23.7092C1.09088 23.5118 0.549648 23.7554 1.01924 24.2948C2.73366 26.3736 8.35218 31.384 15.686 31.384C23.0248 31.384 27.3908 27.3796 27.9369 26.681C28.4794 25.9884 28.0962 25.6063 27.548 25.8352H27.5481ZM31.1861 23.8261C30.8382 23.3731 29.0708 23.2886 27.9586 23.4253C26.8446 23.558 25.1725 24.2388 25.3179 24.6476C25.3925 24.8007 25.5448 24.732 26.31 24.6632C27.0774 24.5866 29.2271 24.3153 29.675 24.9009C30.125 25.4905 28.9894 28.2992 28.782 28.7522C28.5816 29.2052 28.8585 29.322 29.2349 29.0203C29.6062 28.7187 30.2783 27.9377 30.7293 26.8324C31.1772 25.7212 31.4503 24.171 31.1859 23.8261H31.1861Z" fill="#FF9900"/>
<path fill-rule="evenodd" clip-rule="evenodd" d="M18.8383 13.256C18.8383 14.8735 18.8792 16.2225 18.0616 17.659C17.4017 18.827 16.3564 19.5452 15.1885 19.5452C13.5942 19.5452 12.6658 18.3306 12.6658 16.5378C12.6658 12.999 15.8366 12.3567 18.8383 12.3567V13.256ZM23.0253 23.3761C22.7508 23.6213 22.3537 23.6389 22.0442 23.4753C20.6661 22.3308 20.4208 21.7994 19.6617 20.7073C17.3842 23.0315 15.7725 23.7264 12.8177 23.7264C9.32555 23.7264 6.60425 21.5716 6.60425 17.2561C6.60425 13.8867 8.43216 11.5917 11.0306 10.4705C13.2848 9.47768 16.4324 9.30252 18.8383 9.02815V8.49086C18.8383 7.50391 18.9141 6.33602 18.3361 5.48348C17.828 4.71847 16.8586 4.40311 16.006 4.40311C14.4235 4.40311 13.0103 5.21478 12.6658 6.89658C12.5956 7.2704 12.3212 7.63833 11.9475 7.6558L7.91813 7.22375C7.5795 7.14768 7.2058 6.87331 7.29922 6.3535C8.2277 1.47168 12.6365 0 16.584 0C18.6046 0 21.244 0.537295 22.8383 2.06732C24.8588 3.95346 24.6661 6.47031 24.6661 9.2091V15.6794C24.6661 17.624 25.472 18.4765 26.2311 19.5277C26.4996 19.9014 26.5581 20.3512 26.2194 20.6314C25.3726 21.3379 23.866 22.6519 23.0368 23.3878L23.0251 23.3761" fill="black"/>
</g>
<defs>
<clipPath id="clip0_2087_495">
<rect width="32" height="32" fill="white"/>
</clipPath>
</defs>
</svg>
