<?xml version="1.0" encoding="UTF-8"?>
<svg id="Layer_2" data-name="Layer 2" xmlns="http://www.w3.org/2000/svg" viewBox="0 0 146.07 122.6">
  <defs>
    <style>
      .cls-1 {
        fill: #166479;
      }

      .cls-2 {
        fill: #fbd067;
      }

      .cls-3 {
        fill: #b98410;
      }

      .cls-4 {
        fill: #080706;
      }

      .cls-5 {
        fill: #e98f1b;
      }
    </style>
  </defs>
  <g id="Layer_1-2" data-name="Layer 1">
    <g>
      <g>
        <path class="cls-1" d="M126.37,30.68c.07.07.25.25.38.38.22.21.74.92,1.15,1.35,3.79,3.83,7.17,8.01,9.96,12.63,3.88,6.43,7.75,12.97,7.91,20.74l.2.46v6.73c-.32,1.01-.22,2.2-.38,3.27-.64,4.05-2.11,9.08-3.65,12.88-1.76,4.33-4.69,9.98-7.78,13.46C97.34,144,13.29,113.63,2.84,62.06l-1.02-6.77c.12-2.45-.17-5.06,0-7.5.6-8.74,4.01-16.85,8.57-24.21.68-1.1,1.87-2.4,2.39-3.48l.19-.19c.02-.05-.02-.14,0-.19.75-.32,1.64-2.26,2.21-2.5.34-.14.36.27.29.48-.03.09-.36.15-.46.31C7.35,29.76,1.94,39.95,2.79,54.62c1.04,18.01,14.92,34.92,28.77,45.25,27.28,20.35,68.54,28.15,96.35,4.65,6.3-5.32,9.06-8.78,12.3-16.54,5.23-12.5,4.28-23.09.29-35.76-3.6-11.44-16.96-23.93-26.75-30.54C90.88,6.25,55.52-3.93,28.93,6.75c-1.3.52-2.54,1.41-3.85,1.63l4.67-2.53c31.17-11.45,73.17,2.95,96.61,24.84Z"/>
        <path class="cls-1" d="M126.37,30.68c4.68,4.92,9.24,10.09,12.57,16.07,3.5,5.79,6.78,12.11,6.91,19.03,0,0,0-.03,0-.03l.2.46h0s0,.03,0,.03v6.73c-.29,4.18-1.33,8.37-2.6,12.39-2.37,6.96-5.56,13.97-10.86,19.19-1.22,1.36-3.23,3.15-4.66,4.33-.66.61-1.76,1.43-2.52,1.94-33.4,24-86.15,8.51-110.88-21.54-6.47-7.96-11.4-17.35-13.42-27.45,0,0-1.01-6.29-1.01-6.29.04-3.15-.33-6.65.09-9.87.93-9.59,5.55-19.06,10.83-26.77,0,0,.27-.28.27-.28l.19-.19-.44.64c-.23.55-.16.84-.14,1.09-.01-.35-.13-.68.17-1.34,0,0,1.07-1.04,1.07-1.04-.4.2-.25.17-.19.06.09-.11.21-.28.34-.47.49-.67.88-1.42,1.71-1.94,1.92-1.18,4.08.62,3.53,2.69.01-.08-.03.49-.68,1.17-.44.35-.52.36-.7.44.04-.03.18-.07.45-.36.26-.33.14-.19.09-.09-3.48,5.41-6.88,11.08-9.05,17.1-14.28,40.15,33.35,75.31,69.03,79.48,17.72,2.45,36.61-1.59,50.3-13.44,1.54-1.3,3.02-2.63,4.36-4.03,5.27-5.62,8.47-13.45,9.96-20.96,1.47-7.86.19-15.9-2.08-23.55-1.06-3.86-2.88-7.31-5.15-10.58C112.6,12.88,60.32-7.29,25.16,8.79c0,0-.27-.79-.27-.79l4.69-2.49c8.25-2.99,17.08-4.1,25.8-3.91,26.03.93,51.74,11.57,70.99,29.07h0ZM126.37,30.68C101.79,8.46,62.13-5.24,29.89,6.2c0,0,.05-.02.05-.02l-4.65,2.57-.27-.79c1.86-.48,3.71-1.83,5.63-2.32,2.84-1.05,6.02-1.97,8.97-2.58,33.62-6.42,76.81,10.83,97.05,38.43,5.16,6.87,7.4,15.32,8.63,23.75,1.47,10.68-1.37,21.66-6.82,30.86-8.33,12.35-22.65,20.59-37.03,23.7-33.11,6.63-69.62-9.49-89.56-36.21-5.65-7.64-10.11-16.73-11.2-26.43-1.81-14.88,4.01-27.7,12.15-39.7.31-.45.21-.37.62-.9.36-.39.61-.49.76-.58.15-.08.25-.12.21-.1-.04.03-.08.01-.4.27-.6.63-.63,1.13-.6.99-.05.54-.12.61.29,1.33.61.97,2.13,1.02,2.69.44.04-.05-.11.12-.22.29-.8,1.01-.97,1.68-2.39,2.43,0,0,1.07-1.04,1.07-1.04.24-.61.2-.87.17-1.14,0,.02.02.1.03.28.07.21-.12.95-.33,1.36,0,0-.29.28-.29.28l-.19.19.41-.58c-.52,1.02-1.05,1.66-1.54,2.3-5.55,7.93-9.56,17.46-9.57,27.24.02,1.53.09,3.14,0,4.83l-.02-.35.88,6.23c1.48,8.08,4.93,15.74,9.53,22.53,22.3,32.44,77.17,50.5,111.11,26.53.72-.51,1.87-1.28,2.51-1.89,1.41-1.16,3.45-2.88,4.66-4.23,5.31-5.12,8.54-12.04,10.97-18.92,1.32-3.96,2.37-8.22,2.68-12.31,0,0,.01-6.73.01-6.73v.03s-.19-.47-.19-.47h0s0-.03,0-.03c-.11-6.9-3.35-13.2-6.83-18.99-3.31-6-7.83-11.18-12.5-16.11h0Z"/>
      </g>
      <path class="cls-2" d="M12.97,19.72c2.68-5.7,6.54-8.93,11.97-12.17,30.26-18.04,79.19-1.17,101.43,23.12.08.09.19.16.38.38.12.13.29.3.52.57s.71.38.63.78c-.42-.42-.94-1.14-1.15-1.35-.14-.13-.31-.31-.38-.38C102.92,8.8,60.93-5.6,29.76,5.85l-4.67,2.53c1.31-.22,2.55-1.11,3.85-1.63,26.59-10.68,61.95-.5,84.82,14.93,9.79,6.61,23.15,19.09,26.75,30.54,3.99,12.67,4.94,23.26-.29,35.76-.63.22-.33-1.44-.87-.77-.38.48-.93,2.26-1.28,2.95-.55,1.11-1.92,3.13-2.09,4.16-.97.72-.3-.69-.58-.96-.95.04-.38,1.33-1.34.77-.06.27-.06,2.02.39,1.64l.29-.49.29.77c-.22.24-1.17.99-1.28,1.2-.21.4-.03.7-.64,1.49-.72-.45-1.26-.33-1.73.38.32,0,.64.02.96,0-.26.55-.77,1.56-1.14,1.99-.15.17-.42.1-.52.19-.26.23-.27.75-.84.71.09-1.25-.54-1.38-1.78-1.11-1.04.23-.54.44-1.99.35-.53-.03-.88.47-.65.76.05.06,1.35.39,1.43.39.25,0,.14-.84.44-.97.83-.35,2.96-.13,1.77.85-.38.32-2.15,1.17-2.56,1.06-.34-.09-.14-.74-.69-.57-.05,1.67.69,2,2.11,1.34v.38c-27.81,23.5-69.07,15.7-96.35-4.65-13.84-10.33-27.73-27.24-28.77-45.25-.85-14.67,4.56-24.86,12.23-36.61.1-.16.43-.22.46-.31.07-.2.05-.62-.29-.48-.58.23-1.46,2.18-2.21,2.5ZM16.82,22.99c-.33.86-.17,1.07-1.12,1.48-.19.08-.58.03-.61.05-.11.11.22,2.83.58,3.08-.16.63.61,3.83.86,4.62.1.3.12.64.48.77.85,4.75,3,9.28,4.83,13.73l.75.12c12.74,22.62,44.33,40.63,70.25,42.68.69.05,1.78.13,2.4-.19,12.02,1.47,31.89,1.85,39.78-9.04.36.28.51.17.87.02.53-.23,3.94-2.62,4.07-2.95.23-2.02.9-3.96,1.02-6,.53-8.53-1.78-15.51-5.78-22.79-.04-.07-.15-.12-.19-.19s-.16-.13-.19-.19c-5.96-10.72-12.26-19.38-23-25.92-6.98-4.25-13.31-8.17-21.1-11C73.03,4.83,40.57.07,24.44,11.68c-4.78,3.44-5.61,6.09-7.62,11.31ZM16.69,15.75c.15-.18.46-.23.62-.44l1.62-2.13c-1.3,1.1-2.15,2.46-3.46,3.56-.15.37.34.37.54.24.22-.15.52-1.04.68-1.23ZM10.72,48.14c-.21-.33.19-1.05-.25-1.11-.01.57-.82,2.84-.09,3.07.24.08.58-.07.67-.29.06-.16-.33-.02-.39-.22-.12-.44,0-1.05.39-1.32.03-.17-.27-.04-.33-.13ZM15.66,49.14c-1.7-.14-3.01.89-4.04,2.11l1.94-1.23c.51-.29,1.07-.35,1.62-.5.31-.08.57.21.47-.38ZM8.75,51.45c.61.37.42-2.16-1.15-1.44-1.41.65-.65,4.54.1,4.71,1.3.3-.36-1.8-.4-1.91-.24-.78-.25-1.87.78-1.91.73-.03.63.53.68.55ZM11.63,51.45c-.21-.22-.52.29-.62.43-.93,1.31-1.74,2.88-2.67,4.24-.67.98-1.67,1.8-1.99,3.01,1.47-1.15,2.42-2.75,3.38-4.31.23-.38.06-.83.56-1.02,0-.46,1.51-2.2,1.35-2.35ZM8.96,57.62c-.37.58.17,1.39,1.01,1.11.46-.16,1.45-3.65.22-4.01-.15.48.27.9.3,1.45.07,1.6-1.29,1.1-1.52,1.46ZM11.92,57.22v.19c.12-.06.12-.13,0-.19ZM12.21,61.45c.88-.77.77-2.76.09-3.65.06,1.22.23,2.45-.09,3.65ZM10.86,60.87c-.5-.54-.62,1.4.09,1.94.85.64.95-.56,1.26-1.07-1.45.89-1.08-.58-1.34-.86ZM14.7,66.06v-3.17c0-.25-.85-2.3-1.34-1.83-.13.13,1.22,2.45.97,3.52-.17.74-1.17-.02-1.26-.64-1.3.97.47,2.32,1.63,2.11ZM18.55,62.41l-.38-1.15c.11.89-.55,2.17.01,2.97.66.94,3.23-.1,1.33-.95,1.61-.93.31-2.39-.96-.87ZM16.82,70.1c2.99.28.35-6.6-.77-5.58-.18.16,2.08,2.69,1.74,4.1-.19.77-2.22-.16-2.32-.06-.02.81.76,1.47.91,2.26.38,2.02-.9,3.48-2.83,2.36-.54,1.13,1.14,1.89,2.12,1.64,1.96-.51,1.74-3.24,1.15-4.72ZM18.64,68.75v.19c.12-.06.12-.13,0-.19ZM22.53,75.24c.27-.28.4-1.35.06-1.59-.55-.4-.89.52-1.3.64-1.93.59-2.89-2.37-.74-2.43,1.55-.04,1.91,1.22,2.31,1.31.24.05.53-.24.48-.48-.04-.2-2.59-2.45-2.98-2.79s-.96-.84-1.44-.97c-.26.27,1.54,1.73,1.73,2.02-2.91.34-1.82,5,.85,4.7.2-.02.9-.3,1.03-.43ZM23.83,73.17v.19c.12-.06.12-.13,0-.19ZM24.02,73.56l-.09.09.48.48.09-.09-.48-.48ZM27.08,77.53c-.42-1.03-1.2-2.09-2-2.91-.18-.19-.25-.36-.57-.29l.19.57c-2.69-.27-2.54,1.72-1.06,3.27,1.11,1.17,2.79,1.13.47,2.58-.79.49-1.63.83-2.57.89-.39.02-2.43-.36-2.41.09,3.54,2.34,7.03-.4,8.24-3.88.13-.27-.26-.23-.29-.31ZM29.79,78.66c-.44-.52-.98-1.06-1.63-.39l1.54,1.33c.19.22.22.5.2.78-.11,1.93-5.04,4.01-6.7,4.28l-1.97.24c2.66.68,7.04-.47,8.65-2.79.62-.9.59-2.65-.1-3.45ZM30.85,84.33c-.32.35.78,1.34,1.14,1.45,3.36,1.08,4.86-4.6,1.2-4.87-.61-.04-2.07.35-2.15,1.11.69-.11,1.31-.26,2.03-.2,3.09.25,1.98,4.26-1.16,3.08-.29-.11-.92-.72-1.06-.57ZM36.04,85.09c.85.03,1.82.35,2.48.88,1.59,1.3.94,3.19-1.19,2.73-.21-.04-1.89-1.07-1.68-.05.14.66,2.94,1.81,3.76,1.07,1.55-1.39-.71-7.2-3.38-4.63ZM50.84,88.17c.53,4.85,7.33,2.07,2.36-.73-2.7-1.52-5.73-1.05-8.56-.17-.57.18-1.77.92-2.18.9-.54-.03-1.16-1.86-2.39-.47,1.55.02,1.99,1.01,1.68,2.46-.17.82-1.07,1.19-.91,2.06,1.65-1.24,3.98-2.07,6.04-1.53,3.09.81.3,4.48-1.8,3.34-.26-.14-1.59-1.61-1.75-1.42-.38,2.4,3.67,3.62,5,2.21.35-.37.64-1.69,1.04-1.64,1.67.22,2.51,2.24,1.16,3.46-2.22,2-7.24,2.47-10,3.26-.26.08-.6.02-.66.39,3.12.57,8.06-.46,10.63-2.34,1.39-1.02,1.39-2.83.74-4.33-.75-1.74-1.62-1.03-2.25-1.6-.26-.23-.64-1.46-1.11-1.86-1.67-1.42-3.94-.58-5.71.13v-1.92c2.96.62,6.11-1.15,9.11-.75.78.1,3.19.97,1.92,1.89-1.09.79-1.47-1.11-2.38-1.33ZM52.57,95.86h2.98c1.7,0,3.46,1.98,1.1,2.64-1.91.53-2.22-.34-3.81-.51-.38-.04-.28.04-.27.37,2.56,1.23,5.06,2.67,7.69,3.75,1.87.77,2.65,1.01,4.66,1.3,1.17.17,1.06.81,1.68-1-.75-.31-1.56.04-2.18-.01-1.24-.11-2.4-.63-3.58-.95l1.42-.4c2.23-2.21-.97-5.09-3.15-3.25,1.15-.14,2.93.05,3.37,1.34.71,2.05-2.14.6-2.57,1.22-.1.15,0,.49-.04.52-.1.1-2.38-1.02-2.5-1.25,1.78-.7,1.07-3.37-.2-4.22-1.18-.78-3.72-.82-4.6.47ZM75.63,98.36c-.3-.27,1.76-1.57.65-1.91-1.05-.32-2.21,2.03-2.48,2.1-.73.19-.3-1.69-1.05-1.54.09.55.15,1.75.41,2.18.2.33.48.23.68.38.14.1.16.42.38.49.24.08,2.33-.46,2.52-.61.15-.12.55-1.19.43-1.29l-1.54.19ZM58.81,97.78v.19c.12-.06.12-.13,0-.19ZM66.6,102.21c.71-.33.74-2.65.48-3.08-.52-.89-3.45.41-3.46,1.54.27-.66,2.9-1.33,3.15-.93s-.11,1.94-.17,2.47ZM124.83,98.75l-6.25,7.88c-.37.13-.25-.27-.32-.33-.32-.26-1.49,1.06-2.19,1.1-.22.01-1.14-.31-1.2-.41-.72-1.18,1.31-2.53,2.27-2.85.01-.37-.82-.19-1.01-.14-1.99.46-2.4,3.94-.58,4.34l1.4.03-6.05,4.62-.49.76c.16.15,1.76-.57,2.05-.73,2.7-1.43,6.9-5.76,8.6-8.33.12-.18.11-.9.5-.55.03.03-.23.44-.17.82.27,1.49,2.31,1.02,2.96-.05.59-.97-.81.19-.92.24-1.27.56-2.18-.87-1.19-1.78.24-.22,1-.15.66-.57-.03-.03-.29.04-.35-.03-.25-.32,2.37-3.2,2.27-4.01ZM91.5,100.79c1.72-2.67-2.26-1.81-3.68-1.28-1.32.49-5.26,3.6-5.6,3.63-.12,0-1.4-.71-1.8-.83-1.64-.49-2.63-.12-4.22.29l2.93.43c.69.33,2.92.27,1.63,1.14-1.14.77-5.33,2.01-5.69,2.58-.56.9-.05,2.44.67,3.14,1.34,1.3,7.27,1.42,8.44,0,.42-.51.54-2.24.1-2.69s-.4.79-.47.97c-.61,1.68-4.1,1.65-5.58,1.53-1.05-.09-3.03-.28-2.56-1.79.19-.6,3.16-1.3,3.94-1.64.59-.25,3.05-1.76,3.23-1.76.38,0,1.47,1.05,1.96,1.31,2.13,1.13,3.93.62,6.21.61-.66,2.49.75,3.86,3.27,3.46-.81,1.5-2.28,2.48-3.77,3.24-2.02,1.03-4.72,2.15-6.99,1.56.69.74,2.52.66,3.55.57,1.72-.15,5.46-1.7,6.73-2.88,1.03-.95,1.21-1.8,1.85-2.95.35-.63,1.03-.79.74-1.86-.2-.22-5.25,2.77-5,.11.15-1.57,2.57-.99,3.7-.83,2.3.32,7.05,1.25,9.19,1.96.61.2,1.08.77,1.48.84.44.08,1.25-.2,1.88-.18.86.03,1.7.34,2.59.2l-5.96-2.98c3.49-.5,3.7-6.26-.38-3.84.63.14,1.72-.4,2.26.14.22.22.35,1.19.2,1.45-.07.12-1.57.86-1.84.95-2.86.92-6.92.77-9.84.24,1.74-1.14,5.56-5.17,7.76-4.4.45.16.11.75.5.74,1.22-2.44-2.72-1.78-4.11-1.13-1.63.77-4.52,3.67-5.83,3.97-.97.22-1.99-.23-3.03-.15s-2.23.75-3.08.78c-1.09.04-2.43-.95-3.36-1.45,2.31-1.64,4.73-3.99,7.69-4.13.22,1.33-1.16,2.05-2.31,1.54-.29,1.16.74.87,1.49.43.07-.04,1.07-1,1.12-1.08ZM120.22,100.86v-.96c-.52.21-.49,1.79-.3,2.13.09.16.38,0,.45.04.11.08.12.43.35.51.73.24,1.32-.88,1.23-1.53l-.77.19v-1.34c-.63-.17-.47.87-.96.96ZM68.33,101.63h2.79c.27,0,2.32.7,2.01,1.15-1.17.84-1.94,1.64-3.55,1.34-.34-.06-.94-.88-1.06-.28-.4,1.97,4.81,2.35,5.18-.79.3-2.59-3.91-2.97-5.37-1.42ZM103.69,103.36c.14-.27-.12-.51-.19-.38-.14.27.12.51.19.38ZM124.83,103.94c-.21-.21-.59.17-.38.38s.59-.17.38-.38Z"/>
      <path class="cls-2" d="M12.78,20.11c.04-.08.17-.14.19-.19l-.19.19Z"/>
      <path class="cls-2" d="M145.59,76.25c.22.38.23.83.21,1.25-.12,2.32-.74,8.64-2,10.41-.33.47-1.22,1.31-1.86,1.22,1.55-3.8,3.01-8.83,3.65-12.88Z"/>
      <g>
        <path class="cls-1" d="M16.82,22.99c2.02-5.22,2.84-7.87,7.62-11.31,16.13-11.61,48.58-6.85,66.28-.42,7.79,2.83,14.12,6.75,21.1,11,10.75,6.54,17.05,15.2,23,25.92l.19.19c.04.07.16.13.19.19,1.26,3.35,2.65,6.63,3.4,10.15,1.68,7.84,1.16,15.02-3.59,21.57-7.89,10.88-27.77,10.51-39.78,9.04-29.21-3.57-58.23-20.68-73.07-46.4-.26-.45-1.74-3.05-1.69-3.29.04-.17.36-.36.57-.3,1.92,3.99,4.4,7.92,7.21,11.35,20.36,24.8,54.31,39.77,86.49,37.3,4.05-.31,8.12-1,11.82-2.69l-1.95-2.75c-16.74-35.36-59.27-56.88-97.6-45.41-1.51.45-3.1,1.29-4.61,1.35.09-.15.25-.2.38-.29.89-.58,3-1.52,4.04-1.92,7.39-2.91,15.91-3.67,23.83-3.46,1.16.03,2.31.11,3.46.19.9.07,1.79.09,2.69.19,1.62.18,3.31.69,5,.77.06,0,.13,0,.19,0,1.32.49,2.88.49,4.23.77,25.16,5.27,49.65,23.46,60.44,47.11l.96,3.07c4.8-3.03,9.22-6.36,10.72-12.15,3.37-13.03-5.2-29.3-13.89-38.6-1.19-1.6-2.83-3.26-4.32-4.62-2.09-1.9-4.67-3.92-7.04-5.46-5.61-3.64-12.09-7.65-18.25-10.2-7.01-2.91-14.59-5.11-22.1-6.26-9-2.5-23.88-2.41-33.25-.58-9.36,1.83-18.9,6.18-21.53,16.15-1.37,5.22-.77,9.18.77,14.23.94,3.09,2.26,6.61,3.84,9.42l-.75-.12c-1.82-4.45-3.97-8.98-4.83-13.73-.36-1.98-.68-4.54-.58-6.54.06-1.09.47-2.33.38-3.46Z"/>
        <path class="cls-1" d="M16.82,22.99C24.03-4.43,77.19,4.17,96.4,13.2c5.39,2.45,10.44,5.53,15.47,8.57,5.09,3.04,9.7,6.92,13.54,11.44,3.74,4.3,7.39,10.13,9.81,14.58,0,0,.19.19.19.19l.09.12c-.07-.11-.08-.09-.04-.07.03.04.1.04.24.26,4.42,10.13,7.06,22.63-.09,32.25-6.46,8.58-18.22,10.06-28.24,10.23-30.25,0-60.62-13.94-79.44-37.79-3.06-4.11-6.07-8.32-8.27-12.96-.03-.1-.03-.08-.06-.25-.02-.19,0-.37.06-.5.23-.47.44-.55.67-.69.23-.1.49-.22.96-.1l.36.09c3.25,7.02,8.25,13.18,13.76,18.57,16.27,16.15,38.11,26.53,60.82,29.42,5.06.53,10.15.87,15.23.58,5.08-.12,10.18-.71,14.68-2.76l-.39,1.46-1.96-2.75c-16.51-35.2-59.77-56.85-97.45-44.78-1.16.41-2.39.99-3.93,1.07l-1.7.09c.31-.44.95-1.88,1.45-2.02,2.9-1.7,6.11-2.82,9.34-3.68,9.91-2.54,20.53-2.32,30.5-.72,27.6,4.5,53.5,22.91,65.36,48.49,0,0,.01.05.01.05l.96,3.07-1.15-.42c2.07-1.3,4.08-2.67,5.83-4.29,9.33-8.56,4.72-23.86-.56-33.5-2.34-4.28-5.2-8.29-8.49-11.88-2.97-3.83-6.85-7.03-10.85-9.77-8.18-5.44-16.72-10.39-26.17-13.27-4.68-1.52-9.47-2.68-14.32-3.45-3.44-.94-7.02-1.44-10.61-1.71-10.64-.63-21.86-.39-31.78,3.82-16.46,7.35-14.75,23.06-7.47,36.78,0,0-.22-.03-.22-.03l-.75-.12h-.06s-.02-.06-.02-.06c-2.36-5.66-4.92-11.41-5.27-17.63-.31-2.07.29-4.09.35-6.13h0ZM16.82,22.99c-.04,2.05-.63,4.06-.3,6.13.41,6.22,2.99,11.91,5.41,17.56,0,0-.08-.06-.08-.06l.75.11-.11.16c-7.44-13.87-9.04-29.65,7.53-37.23,6.67-3.01,14.02-3.92,21.22-4.27,7.25-.27,14.57-.04,21.64,1.76,4.6.67,9.78,1.89,14.41,3.39,9.52,2.86,18.24,7.84,26.5,13.28,4.08,2.73,8.25,6.2,11.11,9.9,3.39,3.67,6.32,7.73,8.74,12.1,5.71,10.34,10.29,25.93.43,35.24-2.11,1.98-4.49,3.52-6.89,5.04l-.3-.96-.97-3.07.03.09c-2.89-6.26-6.72-12.07-11.2-17.31-11.5-13.43-27.05-23.35-44.07-28.13-.82-.2-2.93-.7-3.77-.91-1.77-.52-3.43-.38-5.24-1.02,0,0,.27.05.27.05-1.83-.04-3.52-.56-5.09-.75-11.26-.92-23.3-.62-33.47,4.8,0,0-.3.18-.3.18-.07.04.03,0,.1-.12l-.82-1.4c1.02-.04,2.15-.52,3.36-.97,3.71-1.22,7.43-2.02,11.27-2.63,35.68-5.69,73.65,16.18,88.42,48.01,0,0,1.95,2.75,1.95,2.75l.69.97-1.08.49c-4.91,2.21-10.27,2.79-15.42,2.91-25.96,1.02-51.93-8.68-71.69-25.37-7.79-6.79-15.16-14.54-19.61-23.99,0,0,.54.46.54.46.26.06.28,0,.32,0,.03-.04.05.03.19-.24.03-.09.07-.21.05-.34,0-.08-.03-.13-.01-.09.21.5.47.98.74,1.48,13.24,23.92,37.97,40.2,64.38,46.06,14.01,3,40.02,5.51,48.84-8.29,6.19-9.24,3.12-21.07-.54-29.84-.04-.04-.12-.07-.23-.26l.09.12-.19-.19-.06-.06c-2.85-5.15-5.95-10.18-9.75-14.64-3.76-4.46-8.23-8.3-13.22-11.34-5.01-3.08-10.01-6.18-15.32-8.65C77.06,4.74,24.2-4.25,16.82,22.99h0Z"/>
      </g>
      <path class="cls-5" d="M91.5,100.79c-.05.08-1.06,1.04-1.12,1.08-.75.44-1.78.73-1.49-.43,1.15.51,2.53-.21,2.31-1.54-2.96.15-5.38,2.49-7.69,4.13.92.5,2.27,1.49,3.36,1.45.86-.03,2.09-.7,3.08-.78,1.04-.08,2.06.37,3.03.15,1.31-.3,4.2-3.21,5.83-3.97,1.38-.65,5.33-1.31,4.11,1.13-.39,0-.05-.59-.5-.74-2.2-.77-6.02,3.26-7.76,4.4,2.92.52,6.98.68,9.84-.24.27-.09,1.77-.83,1.84-.95.15-.26.02-1.24-.2-1.45-.54-.54-1.63,0-2.26-.14,4.09-2.42,3.87,3.35.38,3.84l5.96,2.98c-.88.14-1.73-.17-2.59-.2-.63-.02-1.44.25-1.88.18-.4-.07-.87-.64-1.48-.84-2.14-.71-6.88-1.64-9.19-1.96-1.12-.16-3.55-.74-3.7.83-.25,2.66,4.8-.33,5-.11.29,1.07-.38,1.23-.74,1.86-.65,1.15-.82,2-1.85,2.95-1.27,1.17-5.02,2.72-6.73,2.88-1.03.09-2.87.17-3.55-.57,2.27.58,4.97-.53,6.99-1.56,1.49-.76,2.96-1.74,3.77-3.24-2.52.4-3.93-.97-3.27-3.46-2.29,0-4.08.52-6.21-.61-.48-.26-1.58-1.31-1.96-1.31-.18,0-2.64,1.52-3.23,1.76-.78.33-3.75,1.03-3.94,1.64-.46,1.51,1.51,1.7,2.56,1.79,1.48.13,4.97.16,5.58-1.53.06-.18.03-1.42.47-.97s.33,2.18-.1,2.69c-1.17,1.41-7.1,1.29-8.44,0-.71-.69-1.23-2.23-.67-3.14.35-.57,4.54-1.81,5.69-2.58,1.29-.87-.93-.81-1.63-1.14l-2.93-.43c1.59-.4,2.58-.77,4.22-.29.4.12,1.68.84,1.8.83.33-.03,4.27-3.14,5.6-3.63,1.42-.53,5.4-1.39,3.68,1.28Z"/>
      <path class="cls-5" d="M50.84,88.17c.91.22,1.29,2.12,2.38,1.33,1.27-.92-1.14-1.79-1.92-1.89-3-.4-6.15,1.37-9.11.75v1.92c1.76-.71,4.03-1.55,5.7-.13.47.4.85,1.63,1.11,1.86.63.56,1.5-.14,2.25,1.6.65,1.5.65,3.3-.74,4.33-2.57,1.89-7.51,2.91-10.63,2.34.07-.37.4-.32.66-.39,2.76-.79,7.78-1.26,10-3.26,1.35-1.22.5-3.24-1.16-3.46-.4-.05-.69,1.27-1.04,1.64-1.33,1.41-5.38.18-5-2.21.15-.18,1.49,1.28,1.75,1.42,2.1,1.15,4.88-2.52,1.8-3.34-2.06-.54-4.39.29-6.04,1.53-.16-.87.74-1.24.91-2.06.3-1.45-.14-2.43-1.68-2.46,1.23-1.39,1.85.44,2.39.47.41.02,1.61-.72,2.18-.9,2.83-.87,5.86-1.35,8.56.17,4.96,2.8-1.83,5.58-2.36.73Z"/>
      <path class="cls-3" d="M135.21,48.56c4,7.28,6.3,14.26,5.78,22.79-.13,2.04-.8,3.98-1.02,6-.13.33-3.55,2.72-4.07,2.95-.36.16-.51.27-.87-.02,4.75-6.55,5.27-13.73,3.59-21.57-.76-3.53-2.14-6.8-3.4-10.15Z"/>
      <path class="cls-5" d="M52.57,95.86c.88-1.29,3.42-1.25,4.6-.47,1.28.84,1.98,3.52.2,4.22.11.23,2.4,1.35,2.5,1.25.04-.04-.06-.38.04-.52.43-.62,3.28.83,2.57-1.22-.44-1.28-2.22-1.47-3.37-1.34,2.18-1.84,5.38,1.04,3.15,3.25l-1.42.4c1.18.32,2.34.84,3.58.95.62.06,1.43-.3,2.18.01-.62,1.81-.5,1.17-1.68,1-2.01-.29-2.79-.53-4.66-1.3-2.63-1.08-5.13-2.52-7.69-3.75-.01-.33-.11-.41.27-.37,1.59.17,1.9,1.04,3.81.51,2.36-.65.6-2.64-1.1-2.64h-2.98Z"/>
      <path class="cls-5" d="M124.83,98.75c.09.81-2.53,3.69-2.27,4.01.05.06.32,0,.35.03.34.42-.43.35-.66.57-.99.91-.08,2.34,1.19,1.78.1-.05,1.51-1.21.92-.24-.65,1.06-2.69,1.53-2.96.05-.07-.37.2-.79.17-.82-.39-.36-.38.37-.5.55-1.69,2.57-5.89,6.89-8.6,8.33-.3.16-1.89.88-2.05.73l.49-.76,6.05-4.62-1.4-.03c-1.82-.4-1.42-3.89.58-4.34.19-.04,1.02-.22,1.01.14-.96.32-2.99,1.68-2.27,2.85.06.1.98.43,1.2.41.7-.04,1.87-1.36,2.19-1.1.07.06-.04.46.32.33l6.25-7.88ZM118.2,106.82v.19c.12-.06.12-.13,0-.19Z"/>
      <path class="cls-5" d="M27.08,77.53c.03.08.42.04.29.31-1.21,3.48-4.7,6.22-8.24,3.88-.02-.45,2.01-.07,2.41-.09.94-.05,1.78-.4,2.57-.89,2.32-1.44.64-1.41-.47-2.58-1.48-1.55-1.63-3.54,1.06-3.27l-.19-.57c.32-.07.39.1.57.29.8.83,1.58,1.88,2,2.91ZM23.68,75.9c-1.05.31-.13,1.27.34,1.7.97.89,1.56,1.09,2.6.09-.71-.6-1.92-2.09-2.93-1.79Z"/>
      <path class="cls-5" d="M16.82,70.1c.59,1.48.81,4.21-1.15,4.72-.97.25-2.66-.51-2.12-1.64,1.93,1.12,3.22-.34,2.83-2.36-.15-.79-.93-1.45-.91-2.26.1-.1,2.13.84,2.32.06.34-1.41-1.92-3.94-1.74-4.1,1.12-1.02,3.76,5.86.77,5.58Z"/>
      <path class="cls-5" d="M68.33,101.63c1.46-1.55,5.67-1.17,5.37,1.42-.37,3.15-5.58,2.77-5.18.79.12-.6.72.22,1.06.28,1.6.3,2.38-.51,3.55-1.34.3-.45-1.74-1.15-2.01-1.15h-2.79Z"/>
      <path class="cls-5" d="M22.53,75.24c-.12.13-.83.41-1.03.43-2.67.29-3.76-4.37-.85-4.7-.19-.29-1.99-1.75-1.73-2.02.47.12,1.06.64,1.44.97s2.94,2.59,2.98,2.79c.05.24-.24.53-.48.48-.41-.09-.77-1.35-2.31-1.31-2.15.05-1.19,3.02.74,2.43.41-.12.74-1.04,1.3-.64.34.25.21,1.31-.06,1.59Z"/>
      <path class="cls-5" d="M29.79,78.66c.69.81.73,2.55.1,3.45-1.6,2.32-5.99,3.46-8.65,2.79l1.97-.24c1.66-.27,6.59-2.35,6.7-4.28.02-.28,0-.55-.2-.78l-1.54-1.33c.64-.67,1.18-.13,1.63.39Z"/>
      <path class="cls-5" d="M75.63,98.36l1.54-.19c.11.11-.28,1.17-.43,1.29-.18.15-2.28.69-2.52.61-.22-.07-.24-.39-.38-.49-.2-.15-.47-.04-.68-.38-.26-.44-.32-1.63-.41-2.18.76-.15.33,1.73,1.05,1.54.26-.07,1.43-2.42,2.48-2.1,1.11.34-.95,1.64-.65,1.91Z"/>
      <path class="cls-5" d="M36.04,85.09c2.67-2.57,4.93,3.23,3.38,4.63-.82.74-3.62-.41-3.76-1.07-.21-1.02,1.47.01,1.68.05,2.13.46,2.78-1.43,1.19-2.73-.66-.53-1.63-.85-2.48-.88Z"/>
      <path class="cls-5" d="M30.85,84.33c.14-.15.77.46,1.06.57,3.14,1.18,4.24-2.83,1.16-3.08-.72-.06-1.34.09-2.03.2.08-.76,1.54-1.16,2.15-1.11,3.66.27,2.15,5.95-1.2,4.87-.36-.12-1.46-1.1-1.14-1.45Z"/>
      <path class="cls-5" d="M127.91,104.13c-1.42.65-2.16.33-2.11-1.34.55-.18.36.47.69.57.41.11,2.18-.74,2.56-1.06,1.18-.99-.94-1.2-1.77-.85-.3.13-.19.98-.44.97-.07,0-1.38-.34-1.43-.39-.24-.29.11-.79.65-.76,1.45.09.95-.13,1.99-.35,1.24-.27,1.88-.14,1.78,1.11,0,.06.01.13,0,.19l-.19.38c-.24.41-1.29,1.34-1.73,1.54Z"/>
      <path class="cls-5" d="M18.55,62.41c1.27-1.53,2.57-.06.96.87,1.9.84-.67,1.89-1.33.95-.56-.79.1-2.07-.01-2.97l.38,1.15Z"/>
      <path class="cls-5" d="M14.7,66.06c-1.17.21-2.93-1.14-1.63-2.11.1.62,1.09,1.38,1.26.64.25-1.07-1.11-3.4-.97-3.52.49-.47,1.34,1.58,1.34,1.83v3.17Z"/>
      <path class="cls-5" d="M8.75,51.45s.05-.58-.68-.55c-1.03.04-1.02,1.13-.78,1.91.04.11,1.7,2.21.4,1.91-.74-.17-1.5-4.06-.1-4.71,1.57-.73,1.76,1.81,1.15,1.44Z"/>
      <path class="cls-5" d="M120.22,100.86c.49-.09.33-1.13.96-.96v1.34s.77-.19.77-.19c.1.64-.5,1.76-1.23,1.53-.23-.07-.24-.43-.35-.51-.07-.05-.35.13-.45-.04-.19-.35-.22-1.92.29-2.13v.96Z"/>
      <path class="cls-3" d="M17.01,32.99c-.36-.13-.39-.46-.48-.77-.25-.79-1.02-3.99-.86-4.62.03-.12.62-.95.77-1.15-.1,2,.22,4.55.58,6.54Z"/>
      <path class="cls-5" d="M135.02,96.05l-.29-.77-.29.49c-.44.38-.45-1.37-.39-1.64.96.56.39-.73,1.34-.77.28.27-.4,1.68.58.96-.18,1.11-.18.89-.96,1.73Z"/>
      <path class="cls-5" d="M66.6,102.21c.05-.53.4-2.09.17-2.47s-2.88.27-3.15.93c.01-1.13,2.94-2.43,3.46-1.54.25.43.23,2.75-.48,3.08Z"/>
      <path class="cls-5" d="M8.96,57.62c.23-.36,1.59.14,1.52-1.46-.02-.55-.45-.97-.3-1.45,1.23.36.24,3.86-.22,4.01-.83.28-1.38-.53-1.01-1.11Z"/>
      <path class="cls-5" d="M11.63,51.45c.16.16-1.36,1.9-1.35,2.35-.5.19-.33.64-.56,1.02-.96,1.57-1.9,3.16-3.38,4.31.31-1.21,1.32-2.03,1.99-3.01.94-1.37,1.74-2.94,2.67-4.24.1-.14.41-.65.62-.43Z"/>
      <path class="cls-5" d="M10.86,60.87c.26.28-.1,1.76,1.34.86-.31.52-.41,1.71-1.26,1.07-.71-.53-.59-2.48-.09-1.94Z"/>
      <path class="cls-5" d="M10.72,48.14c.06.09.36-.04.33.13-.38.27-.51.88-.39,1.32.05.2.45.06.39.22-.09.22-.43.36-.67.29-.73-.23.08-2.5.09-3.07.43.06.03.78.25,1.11Z"/>
      <path class="cls-5" d="M15.66,49.14c.1.59-.16.3-.47.38-.55.15-1.12.21-1.62.5l-1.94,1.23c1.03-1.22,2.34-2.25,4.04-2.11Z"/>
      <path class="cls-5" d="M12.21,61.45c.32-1.21.15-2.43.09-3.65.68.89.78,2.88-.09,3.65Z"/>
      <path class="cls-5" d="M133.1,98.75c-.23.31.36.33-.77.38-.32.01-.64,0-.96,0,.47-.71,1.01-.84,1.73-.38Z"/>
      <path class="cls-4" d="M16.69,15.75c-.16.19-.46,1.09-.68,1.23-.19.13-.69.13-.54-.24,1.3-1.1,2.16-2.46,3.46-3.56l-1.62,2.13c-.15.2-.47.26-.62.44Z"/>
      <path class="cls-5" d="M18.64,68.75c.12.06.12.13,0,.19v-.19Z"/>
      <path class="cls-5" d="M23.83,73.17c.12.06.12.13,0,.19v-.19Z"/>
      <rect class="cls-5" x="24.15" y="73.51" width=".13" height=".68" transform="translate(-45.12 38.74) rotate(-44.99)"/>
      <path class="cls-5" d="M58.81,97.78c.12.06.12.13,0,.19v-.19Z"/>
      <path class="cls-3" d="M135.02,48.37l-.19-.19c.04.07.15.12.19.19Z"/>
      <path class="cls-5" d="M11.92,57.22c.12.06.12.13,0,.19v-.19Z"/>
      <path class="cls-3" d="M39.5,7.03c9.37-1.84,24.25-1.93,33.25.58,5.56,1.55,11.1,3.48,16.47,5.73,1.46.61,3.08,1.68,4.48,2.24,2.3.93,4.92,1.52,7.3,2.5,8.25,3.39,17.39,9.56,23.45,16.05,8.69,9.3,17.26,25.58,13.89,38.6-1.5,5.79-5.92,9.12-10.72,12.15l-.96-3.07c-10.79-23.64-35.28-41.84-60.44-47.11.41-.26-.19-.24-.39-.28-1.57-.32-2.37-.42-3.84-.49-.06,0-.13,0-.19,0,.11-.61-.3-.33-.66-.39-1.1-.19-2.23-.39-3.34-.52-.31-.04-.8-.22-1,.14-.9-.1-1.79-.12-2.69-.19.11-.58-.29-.37-.66-.38-.8-.03-1.61,0-2.41,0-.2-.32-.73-.19-1.05-.2-1.45-.02-2.98-.06-4.43,0-.23,0-.71-.15-.67.19,1.92,0,3.85,0,5.76,0v.19c-7.93-.21-16.44.55-23.83,3.46-1.48.41-3.06,1-4.42,1.73-.08-.03-.27.03-.38,0l.19-.77c-1.12.3-2.3.68-3.46.19-1.53-5.05-2.14-9.01-.77-14.23,4.01-7.02,10.63-12.41,18.27-15.09,1.06-.37,2.34-.46,3.26-1.07ZM36.81,24.34c2.02-3.65,4.08-6.68,6.73-9.9.53-.64,1.49-1.08,1.34-2.02-.2-.23-1.82,1.5-2.02,1.73-.68.75-1.57,1.81-2.2,2.6-.55.69-2.23,3.5-2.79,3.66-.12.03-.43-.18-.48-.11-.07.09.13.93-.18,1.46-.35.59-1.53.88-2.03,1.23-1.67,1.18-2.56,3.36-2.4,5.39,1.52.06,1.94-1.64,2.88-2.5.08.92-.93,1.66-1.13,2.42-.1.36.26.37.36.27.07-.07.28-.96.41-1.19.19-.34.83-1.03.94-1.41.15-.55-.77-.03-.57-.57.14-.37.71-1.15.86-.29.35-.16.21-.63.29-.77,0,.02-.34.24-.38.1l.19-.48h.19c-.01.12.03.32,0,.38ZM56.41,15.11c.77-.57.46-1.29-.38-1.46-1.02-.21-1.33.37-2.12.79.02.77.63-.17.9-.25.84-.24,1.82-.14,1.6.92ZM71.21,16.07c.11.15-.13.53-.3.57-.36.09-1.06-.75-1.23-.09-.2.77,1.95,1.84,2.12.2.31-2.87-3.54-1.77-5.14-1.1-2.22.94-4.67,2.89-6.5,4.46-.17.15-.5.13-.61.24-.05.05-.68,1.24-.63,1.29l5.32-3.62c1.56-.78,3.16-1.99,4.97-2.14.35-.03,1.87-.01,2.02.19ZM53.53,15.11c-.21-.21-.53.28-.65.4-.91.94-1.48,2.25-2.25,3.28-.17.23-.35.15-.36.16-.31.41.36.56.76.03.13-.18-.29-.58.64-.37.87.19,1.18,1.12.81,1.88-.3.62-2.32,1.17-2.98.77,1.65,4.31,5.94-3.02,1.92-3.17.22-.34,2.29-2.81,2.11-2.98ZM57.76,17.61c.27.27,2.36-2.18,2.69-2.4-.53-.06-2.98,2.11-2.69,2.4ZM86.39,15.3c-3.3.29-5.69,2.5-8.16,4.43-1.12.87-3.69,3.61-5.14,3.42-1.91-.24-1.11-2.45.53-2.47.23,0,1.49.44,1.24-.09-4.13-2.77-4.68,5.14-.28,3.17l-.39.76,7.8-6.62c.9-.49,1.78-1.1,2.73-1.5.64-.27,1.81-.05,1.67-1.11ZM78.51,17.22c-.14-.15-1.66.78-1.34,1.34.8-.06,1.41-.47,1.34-1.34ZM57.47,17.8v.19c.12-.06.12-.13,0-.19ZM57.37,18.19c-.28-.26-1.08.83-.96,1.15.15-.13,1.17-.95.96-1.15ZM81.59,19.72c.55-.03,2.07-.32,1.64-1.15-.58-1.13-1.77.2-1.64,1.15ZM65.08,22.77c.06.1,1.51.4,1.76.37.7-.09,2.65-1.53,2.79-2.21.26-1.24-.49-2.82-1.97-2.54-.31.06-1.9.85-.98.96.41.05,2.56-.12,2.39.84-.02.13-.96,1.03-1.15,1.17-.97.68-1.72.83-2.87.49.04.26-.09.75.02.93ZM49.3,18.96s-.65,0-.82.04c-.93.23-1.5,1.65-2.06,2.36.54-.06.84-1.06,1.09-1.26.28-.23,2.45-.49,1.79-1.14ZM46.61,20.3c.05-.6-.78-.82-1.25-.79-1.97.13-2.57,4.49-.6,3.84.4-.13.44-.92.2-.94-.25-.03-.69.14-.87-.11-.88-1.2,1.38-2.47,2.52-2ZM56.32,19.54l-.29.29c0,.2.48-.11.29-.29ZM37.38,19.92c-1.37-.45-1.9.13-1.73,1.53.84.18.08-1,.19-1.15.17-.24,1.42-.02,1.54-.38ZM49.97,19.73l-.29.29c0,.2.48-.11.29-.29ZM42.57,20.3c-.46.01-.94-.06-1.4.04-1.56.35-3.62,6.08-5.03,7.28-.17.55-3.02,4.4-2.8,4.6.27.24.48-.1.63-.24.44-.4,1.09-1.3,1.44-1.82,1.52-2.2,2.69-4.79,3.88-7.17.31-.02.19.42.37.68.5.74,1.75.61,2.31-.01-1.67.28-3.09-1.47-1.13-2.29.86-.36,2.01.09,1.71-1.07ZM55.74,20.3v.19c.12-.06.12-.13,0-.19ZM64.03,21.77c.13-.12.96-1.15.84-1.28-1.2.98-2.12.65-3.42.62-1.13-.03-.58,1.12.45,1.29.95.15,1.44-.02,2.13-.63ZM54.49,21.65l-.1-.96c-1.09.7-2.83,2.8-2.78,4.12.09,2.43,3.9.97,3.98-.99.06-1.43-1.21.48-1.63.72-.51.29-1.2.42-1.78.39-.02-1.26.99-2.27,1.83-3.07.39,1.65,2.4.65,2.78-.29.3-.73-1.29.33-1.53.1l.39-.86c-.49-.47-.4.98-1.16.86ZM48.72,21.65c.14-.27-.12-.51-.19-.38-.14.27.12.51.19.38ZM77.95,23.77c-.69,1.03,2.21,1,2.48-.7.3-1.91-.84-1.78-2.29-1.43.25.44,1.09.27,1.53.49,1.51.76-1.63,1.51-1.71,1.64ZM46.23,22.41l.1-.76c-2.35,2.5,2.57.91,1.82.19-.18-.18-1.42.93-1.92.57ZM86.78,24.34c.36-2.35-2.62-2.1-4.17-1.68-.96.89-2.23,2.66-.87,3.79.71.59,1.65.09,1.58.76-2.55,1.63-4.96,3.52-7.83,4.57l-2.54.82c2.04.13,3.97-.76,5.74-1.66,3.29-1.67,5.96-3.9,8.77-6.22.29-.87-.47-.08-.74.03-1.56.65-3.02,1.09-4.75.92.46-1.94,3.47-3.27,4.8-1.34ZM42.28,23.38v.19c.12-.06.12-.13,0-.19ZM90.05,28.57c.07-1.34-.28-4.09-2.12-3.65.17.56,1.07.7,1.16,1.25.15.86-.66,2.3-.2,3.36-.4-.02-.77-.02-1.16.09-2.62.78-5.32,2.45-7.87,3.27-.5.16-1.31-.14-1.16.48,3.02.11,5.88-1.33,8.64-2.41,1.48-.58,2.27-.9,3.82-1.37,1.43-.44,2.45-1.75,1.81-3.28-.34-.8-1.98-.82-2.35-.43-.31.33.05.33.29.38,3.48.77,1.26,2-.86,2.31ZM101.19,26.45c-1.21.45-1.5,1.29-2.88.58-.09.33.14.38.29.58.19.25,1.61,1.89,1.73,1.92.53.15.62-.17.44-.64-.19-.5-.98-.72-.92-1.29.31.03,1.63-.87,1.34-1.16ZM94.85,28.95c.92-.29.09-2.13-.39-1.73-.36.31.36.4.39.51.08.36-.05.84,0,1.22ZM34.5,28.76c-.33-.33-.67.67-.57.77.33.33.67-.67.57-.77ZM97.93,32.22c.14-.51,1.56-.48,1.84-1.72.63-2.72-3.65-1.68-4.91-.68,1.48.08,4.14-1.62,4.63.75-1.94,1.5-3.96.17-5.97-.27.71,1.12,1.43,1.72,2.81,1.9.54.07,1.1-.04,1.61.02-.22.82.7,1.68,1.46,1.73.46.03,1.84-.85,2-1.25.28-.66-1.26.31-1.62.29-.59-.03-1.04-.67-1.84-.77ZM106.19,29.53v2.88c.33.07,2.48-.13,2.51-.3.28-1.71-.69-.8-.97-1.05l.38-1.15c-.86-.17-.9.87-1.53,1.15-.03-.43.12-1.34-.39-1.54ZM33.92,29.72c-.21-.21-.59.17-.38.38s.59-.17.38-.38ZM101.68,30.77c-.39-.22-.77-.83-1.26-.18.62.2.84.65,1.22,1,.2.18,1-.06.32,1.13s-3.87,2.39-5.21,2.86c-2.17.77-5.82,1.31-7.59,2.21-1.12.57.05.77.76.76,2.33-.03,9.16-2.17,11.06-3.55.42-.31,1.39-1.6,1.49-1.62.86-.23,2.65.27,3.14,1.05.74,1.15-1.38,1.8-2.19,1.28-.39-.25-.05-1.02-.89-.78-.25,1.62,2.54,3.06,3.31,1.48.45-.92.62-1.76.03-2.61-1.04-1.5-3.02-.48-3.34-.79-.09-.09.09-1.84,0-1.92-.06-.05-.44.06-.62,0-.19-.07-.18-.26-.24-.29ZM32.64,31.71c.13-.22.71-.2.51-.83-.3.14-1.92,2.12-1.73,2.31.42.41,1.13-1.33,1.22-1.47ZM81.78,35.49c3.89-.8,8.56-1.46,11.33-4.52-.81.19-1.48.73-2.26,1.01-2.3.83-5.17,1.18-7.4,2.02-.64.24-1.55.73-1.68,1.49ZM33.25,32.41v.19c.12-.06.12-.13,0-.19ZM31.14,33.57v.19c.12-.06.12-.13,0-.19ZM30.94,33.95v.19c.12-.06.12-.13,0-.19ZM109.52,36c-.37-.33-.96-1.55-1.8-1-.88.58,1.52.75,1.35,1.64-3.32-.03-3.96,1.95-3.01,4.84.81,2.45,3.13,3.38,5.59,3.02,1.17-.17,2.01-1.02,1.51-2.24-.1-.24-.86-1.35-1.2-1.01.5,3.29-4.63,2.4-5.48.2-1.18-3.03.64-3.63,3.26-3.82.89,2.14,2.65,3.69,5.11,3.43.17-1.03-.41-.84-1.02-1.19-.53-.3-3.27-2-2.81-2.65.94-.25,1.74-1.21,2.68-1.46,1.22-.32,4.13.29,4.25,1.74.07.88-1.56,1.08-2.2.68-.37-.23-.08-.93-.7-.78-.37,1.96,2.95,1.8,3.26.08.39-2.17-3.23-2.87-4.85-2.54-1.29.26-2.67,2.13-3.92,1.04ZM122.33,44.14l.19-1.35c-.69.7-.67,1.97-1.15,2.88.86-.05,1.72.37,1.73-.77l-.58-.19.57-.58h-.77ZM127.91,44.91c-.5-.52-2.96.37-3.59.73-1.31.74-4.28,4.12-5.15,4.27-.72.13.3-.41,0-.78-1.94-.33-2.74-2.86-.65-3.52,1-.31.94.04,1.61.25s.07-.77-.43-.92c-2.28-.69-4.04,2.64-1.89,4.58.18.16,1.2.44.87.76-.1.1-2.47.71-2.81.75-.79.09-1.59-.01-2.38.02-.37.32.99.91,1.26.95,1.88.29,4.57-.33,6.11-1.37.36-.25,1.58-1.7,1.86-1.51.26.8.36,1.15-.44,1.58-.44.24-1.71.28-1.48,1.02.25.8,1.55-.16,1.88-.24,2.02-.51,3.76,2.63.52,2.27-.46-.05-1.7-.82-1.41.25.13.5,1.57,1.01,2.05,1.05.83.07,1.57-.68,2.26-.17.05.04.73.93.76.98.38.85-1.22,1.79-2.02,1.15-.4,1.13,1.08,1.68,1.93,1.25.43-.22.2-1.06,1.01-.49.85.61.65,2.5-.06,3.17-.94.88-2.4.21-2.49.3.99,3.52-2.15,1.69-3.7,1.95-.51.09-1.07.56-.39.89.5.25,3.65.73,4.15.58.8-.25.75-1.61.71-2.27,1.82.74,3.15-.81,3.09-2.6-.01-.34-.68-2.69-.78-2.79-.08-.08-.72.28-.96.19-.04-1.31-.02-3.7-1.92-2.88.02-1.7-.02-4.04-2.31-3.27.1-.5.24-.92.21-1.45-.04-.66-.55-.96-.22-1.49.03-.05.77-.81.87-.91,1.1-1,2.21-1.6,3.65-1.93.23-.05.6-.05.29-.38ZM130.79,54.14c-.61-.15-.35.8-.51,1.31-.15.48-.76,1.12-.79,1.51-.07.99,1.17,1.54,1.3.54.07-.55-.56-.11-.57-.38,1.02-1.08.74-1.62.58-2.98ZM130.02,62.98c.95-.31.04-2.16-.39-1.73-.07.07.68,1.3.39,1.73ZM129.65,66.62c-.05-.06.5-.76.55-1.05.09-.49.2-2.33-.42-2.36-1.78-.06-2.79,1.23-2.08,2.95.32.79,1.76,1.03,2.32.56.02-.19-.31-.04-.37-.11ZM130.31,66.44v.19c.12-.06.12-.13,0-.19ZM134.64,66.45c-.4.07-1.19-.13-1.5.04-.14.08-1.47,2.4-1.71,2.8-.22.35-.56.84-.81,1.16-.01.71-.82,1.37-.98,1.87-.24.78.78-.39,1.06.09.37.64-1,2.59-2.02,2.12-.24,1.3,1.02,1.1,1.63.38,1.13-1.33.32-2.9.63-3.78.1-.3,2.27-3.75,2.45-3.9.38-.31.79-.18,1.25-.19v-.58ZM129.25,67.6c.14-.27-.12-.51-.19-.38-.14.27.12.51.19.38ZM130.79,67.22c-.39-.47-.61,1.08-.77,1.25-.21.22-.66.31-.96.29-.14-.15.33-1.17-.38-.96.12.93-.48,2.01.77,1.73-.66,1.19-3.05.2-3.72.4-1.33.39.92,1.49,1.72,1.51,1,.02,2.13-.95,2.61-1.77.21-.35.83-2.31.73-2.44Z"/>
      <path class="cls-2" d="M26.81,36.26c-1.03.41-3.14,1.35-4.04,1.92-.1-.12-.25-.14-.38-.19,1.36-.73,2.94-1.32,4.42-1.73Z"/>
      <path class="cls-2" d="M124.45,34.14c-6.07-6.49-15.2-12.66-23.45-16.05-2.38-.98-5-1.57-7.3-2.5-1.41-.57-3.02-1.63-4.48-2.24-5.37-2.25-10.91-4.19-16.47-5.73,7.5,1.14,15.09,3.35,22.1,6.26,6.16,2.55,12.64,6.56,18.25,10.2,2.37,1.54,4.95,3.56,7.04,5.46,1.49,1.36,3.13,3.02,4.32,4.62Z"/>
      <path class="cls-2" d="M39.5,7.03c-.92.61-2.2.69-3.26,1.07-7.63,2.68-14.25,8.06-18.27,15.09,2.63-9.97,12.17-14.32,21.53-16.15Z"/>
      <path class="cls-2" d="M56.8,33.18c.2-.36.69-.17,1-.14,1.11.13,2.24.33,3.34.52.36.06.77-.22.66.39-1.69-.08-3.38-.59-5-.77Z"/>
      <path class="cls-2" d="M61.98,33.95c1.47.06,2.27.16,3.84.49.19.04.8.02.39.28-1.35-.28-2.91-.28-4.23-.77Z"/>
      <path class="cls-2" d="M51.03,32.61c.8,0,1.61-.03,2.41,0,.37.01.77-.2.66.38-1.15-.09-2.3-.16-3.46-.19v-.19c.13,0,.26,0,.38,0Z"/>
      <path class="cls-2" d="M23.68,75.9c1.01-.3,2.23,1.2,2.93,1.79-1.03,1-1.62.8-2.6-.09-.47-.43-1.38-1.4-.34-1.7Z"/>
      <path class="cls-5" d="M127.91,44.91c.31.33-.06.33-.29.38-1.44.32-2.55.93-3.65,1.93-.1.1-.84.86-.87.91-.33.53.18.82.22,1.49.03.53-.11.95-.21,1.45,2.29-.77,2.33,1.57,2.31,3.27,1.9-.82,1.88,1.58,1.92,2.88.24.09.88-.27.96-.19.1.1.77,2.44.78,2.79.06,1.78-1.26,3.34-3.09,2.6.04.66.09,2.02-.71,2.27-.5.15-3.65-.33-4.15-.58-.68-.33-.12-.8.39-.89,1.55-.26,4.69,1.57,3.7-1.95.09-.09,1.56.58,2.49-.3.71-.67.91-2.56.06-3.17-.8-.57-.58.27-1.01.49-.85.43-2.33-.13-1.93-1.25.8.65,2.39-.3,2.02-1.15-.03-.06-.71-.95-.76-.98-.7-.52-1.44.24-2.26.17-.47-.04-1.91-.55-2.05-1.05-.29-1.07.95-.3,1.41-.25,3.24.36,1.5-2.78-.52-2.27-.33.08-1.63,1.04-1.88.24-.23-.74,1.03-.78,1.48-1.02.8-.43.7-.78.44-1.58-.28-.2-1.49,1.26-1.86,1.51-1.53,1.04-4.23,1.65-6.11,1.37-.27-.04-1.63-.63-1.26-.95.79-.04,1.59.06,2.38-.02.34-.04,2.71-.65,2.81-.75.33-.32-.69-.6-.87-.76-2.16-1.94-.39-5.27,1.89-4.58.49.15,1.06,1.12.43.92s-.61-.57-1.61-.25c-2.09.66-1.29,3.19.65,3.52.29.37-.73.91,0,.78.86-.15,3.84-3.53,5.15-4.27.63-.36,3.09-1.25,3.59-.73Z"/>
      <path class="cls-5" d="M109.52,36c1.24,1.09,2.62-.78,3.92-1.04,1.62-.33,5.24.37,4.85,2.54-.31,1.71-3.63,1.88-3.26-.08.63-.15.33.55.7.78.64.4,2.27.2,2.2-.68-.12-1.46-3.04-2.06-4.25-1.74-.94.24-1.74,1.21-2.68,1.46-.45.65,2.28,2.35,2.81,2.65.61.35,1.2.15,1.02,1.19-2.46.26-4.22-1.3-5.11-3.43-2.62.19-4.44.79-3.26,3.82.86,2.2,5.98,3.1,5.48-.2.34-.34,1.1.77,1.2,1.01.5,1.22-.33,2.07-1.51,2.24-2.46.35-4.78-.57-5.59-3.02-.95-2.89-.31-4.88,3.01-4.84.18-.89-2.23-1.06-1.35-1.64s1.43.67,1.8,1Z"/>
      <path class="cls-5" d="M101.68,30.77c.06.03.05.22.24.29s.56-.04.62,0c.09.08-.09,1.84,0,1.92.32.31,2.3-.71,3.34.79.59.85.42,1.69-.03,2.61-.77,1.58-3.56.14-3.31-1.48.84-.24.5.53.89.78.81.52,2.93-.12,2.19-1.28-.5-.77-2.28-1.28-3.14-1.05-.11.03-1.07,1.32-1.49,1.62-1.9,1.39-8.73,3.52-11.06,3.55-.71,0-1.88-.19-.76-.76,1.78-.9,5.43-1.43,7.59-2.21,1.33-.48,4.51-1.64,5.21-2.86s-.13-.95-.32-1.13c-.38-.35-.61-.8-1.22-1,.49-.65.87-.04,1.26.18Z"/>
      <path class="cls-5" d="M86.78,24.34c-1.33-1.92-4.34-.6-4.8,1.34,1.73.17,3.19-.27,4.75-.92.26-.11,1.03-.9.74-.03-2.81,2.32-5.49,4.55-8.77,6.22-1.77.9-3.7,1.78-5.74,1.66l2.54-.82c2.87-1.05,5.29-2.94,7.83-4.57.07-.67-.87-.17-1.58-.76-1.37-1.13-.1-2.9.87-3.79,1.55-.42,4.53-.67,4.17,1.68Z"/>
      <path class="cls-5" d="M90.05,28.57c2.12-.31,4.34-1.53.86-2.31-.23-.05-.6-.05-.29-.38.37-.39,2.01-.37,2.35.43.64,1.53-.38,2.84-1.81,3.28-1.54.47-2.34.8-3.82,1.37-2.76,1.08-5.62,2.52-8.64,2.41-.15-.62.66-.32,1.16-.48,2.55-.82,5.26-2.5,7.87-3.27.39-.12.76-.11,1.16-.09-.46-1.06.35-2.5.2-3.36-.1-.56-1-.69-1.16-1.25,1.83-.44,2.19,2.31,2.12,3.65Z"/>
      <path class="cls-5" d="M36.81,24.34c-.08.14.06.61-.29.77-.15-.86-.73-.08-.86.29-.19.54.72.02.57.57-.11.38-.74,1.07-.94,1.41-.13.23-.34,1.12-.41,1.19-.1.1-.46.09-.36-.27.21-.77,1.21-1.51,1.13-2.42-.94.86-1.36,2.56-2.88,2.5-.16-2.03.73-4.2,2.4-5.39.5-.36,1.68-.65,2.03-1.23.31-.52.11-1.37.18-1.46.05-.07.36.14.48.11.56-.16,2.24-2.97,2.79-3.66.64-.79,1.52-1.86,2.2-2.6.2-.22,1.82-1.95,2.02-1.73.15.94-.81,1.38-1.34,2.02-2.65,3.22-4.71,6.25-6.73,9.9.03-.07-.01-.27,0-.38h-.19s-.19.48-.19.48c.04.14.37-.08.38-.1ZM36.23,23.19c-1.77.5-3.09,2.42-3.07,4.23.58.64,3.04-3.64,3.07-4.23Z"/>
      <path class="cls-5" d="M71.21,16.07c-.14-.2-1.66-.22-2.02-.19-1.8.15-3.4,1.37-4.97,2.14l-5.32,3.62c-.05-.05.58-1.24.63-1.29.11-.11.44-.1.61-.24,1.84-1.57,4.28-3.52,6.5-4.46,1.59-.67,5.45-1.77,5.14,1.1-.18,1.64-2.32.57-2.12-.2.17-.67.87.18,1.23.09.17-.04.41-.42.3-.57Z"/>
      <path class="cls-5" d="M81.78,35.49c.12-.76,1.03-1.25,1.68-1.49,2.23-.84,5.1-1.19,7.4-2.02.78-.28,1.45-.81,2.26-1.01-2.78,3.06-7.44,3.72-11.33,4.52Z"/>
      <path class="cls-5" d="M54.49,21.65c.76.12.66-1.33,1.16-.86l-.39.86c.25.23,1.83-.83,1.53-.1-.38.94-2.39,1.94-2.78.29-.84.81-1.84,1.82-1.83,3.07.58.04,1.28-.1,1.78-.39.42-.24,1.69-2.15,1.63-.72-.08,1.97-3.89,3.42-3.98.99-.05-1.32,1.69-3.42,2.78-4.12l.1.96Z"/>
      <path class="cls-5" d="M65.08,22.77c-.12-.18.02-.68-.02-.93,1.15.33,1.9.18,2.87-.49.19-.13,1.13-1.04,1.15-1.17.17-.95-1.98-.79-2.39-.84-.93-.11.67-.9.98-.96,1.48-.28,2.23,1.3,1.97,2.54-.14.68-2.1,2.12-2.79,2.21-.25.03-1.69-.27-1.76-.37Z"/>
      <path class="cls-5" d="M97.93,32.22c.8.1,1.25.73,1.84.77.36.02,1.89-.95,1.62-.29-.17.4-1.54,1.28-2,1.25-.75-.05-1.68-.91-1.46-1.73-.51-.06-1.07.05-1.61-.02-1.37-.18-2.1-.78-2.81-1.9,2.01.44,4.03,1.76,5.97.27-.49-2.37-3.15-.67-4.63-.75,1.26-1,5.54-2.04,4.91.68-.29,1.24-1.7,1.21-1.84,1.72Z"/>
      <path class="cls-5" d="M134.64,66.45v.58c-.46.01-.87-.12-1.25.19-.18.15-2.35,3.61-2.45,3.9-.31.89.5,2.45-.63,3.78-.61.72-1.87.92-1.63-.38,1.02.47,2.39-1.48,2.02-2.12-.28-.48-1.29.69-1.06-.09.15-.5.96-1.16.98-1.87.26-.33.59-.81.81-1.16.24-.4,1.57-2.71,1.71-2.8.31-.18,1.09.02,1.5-.04Z"/>
      <path class="cls-5" d="M53.53,15.11c.18.17-1.9,2.64-2.11,2.98,4.02.16-.27,7.49-1.92,3.17.66.4,2.68-.15,2.98-.77.37-.77.06-1.69-.81-1.88-.93-.21-.51.2-.64.37-.39.53-1.07.38-.76-.03.01-.02.19.06.36-.16.77-1.03,1.34-2.34,2.25-3.28.12-.12.44-.61.65-.4Z"/>
      <path class="cls-5" d="M130.79,67.22c.11.13-.52,2.09-.73,2.44-.48.82-1.61,1.79-2.61,1.77-.8-.02-3.05-1.12-1.72-1.51.67-.2,3.06.79,3.72-.4-1.25.28-.65-.8-.77-1.73.71-.21.24.81.38.96.3.02.75-.07.96-.29.16-.17.38-1.72.77-1.25Z"/>
      <path class="cls-5" d="M42.57,20.3c.29,1.16-.86.72-1.71,1.07-1.96.81-.54,2.56,1.13,2.29-.57.62-1.81.75-2.31.01-.18-.27-.06-.7-.37-.68-1.19,2.38-2.37,4.97-3.88,7.17-.35.51-1.01,1.42-1.44,1.82-.15.14-.37.47-.63.24-.22-.2,2.62-4.05,2.8-4.6,1.4-1.2,3.47-6.93,5.03-7.28.46-.1.94-.03,1.4-.04Z"/>
      <path class="cls-5" d="M129.65,66.62c.06.06.4-.08.37.11-.56.47-2,.23-2.32-.56-.71-1.73.3-3.02,2.08-2.95.63.02.51,1.87.42,2.36-.05.3-.61.99-.55,1.05ZM129.83,63.56c-.73.74-2,.31-1.94,1.63.03.68.43.8,1.07.68.78-.15.97-1.63.87-2.31Z"/>
      <path class="cls-5" d="M106.19,29.53c.51.19.36,1.11.39,1.54.64-.28.67-1.32,1.53-1.15l-.38,1.15c.28.25,1.25-.67.97,1.05-.03.17-2.18.37-2.51.3v-2.88Z"/>
      <path class="cls-5" d="M64.03,21.77c-.69.62-1.18.79-2.13.63-1.04-.17-1.58-1.32-.45-1.29,1.3.04,2.22.36,3.42-.62.13.13-.7,1.16-.84,1.28Z"/>
      <path class="cls-5" d="M46.61,20.3c-1.14-.47-3.4.8-2.52,2,.18.25.62.08.87.11.23.02.19.81-.2.94-1.97.65-1.37-3.71.6-3.84.47-.03,1.3.19,1.25.79Z"/>
      <path class="cls-5" d="M77.95,23.77c.09-.13,3.22-.88,1.71-1.64-.43-.22-1.27-.04-1.53-.49,1.46-.35,2.6-.49,2.29,1.43-.27,1.7-3.17,1.72-2.48.7Z"/>
      <path class="cls-5" d="M101.19,26.45c.29.29-1.03,1.19-1.34,1.16-.06.56.73.78.92,1.29.17.47.08.79-.44.64-.12-.04-1.54-1.68-1.73-1.92-.15-.19-.37-.25-.29-.58,1.38.72,1.67-.13,2.88-.58Z"/>
      <path class="cls-5" d="M130.79,54.14c.16,1.36.44,1.9-.58,2.98.01.27.65-.17.57.38-.13,1-1.37.45-1.3-.54.03-.39.64-1.03.79-1.51.16-.51-.09-1.46.51-1.31Z"/>
      <path class="cls-5" d="M122.33,44.14h.77s-.57.58-.57.58l.58.19c-.01,1.14-.87.72-1.73.77.48-.91.46-2.18,1.15-2.88l-.19,1.35Z"/>
      <path class="cls-5" d="M81.59,19.72c-.13-.95,1.06-2.28,1.64-1.15.43.83-1.09,1.12-1.64,1.15Z"/>
      <path class="cls-5" d="M46.23,22.41c.5.35,1.74-.75,1.92-.57.75.72-4.17,2.31-1.82-.19l-.1.76Z"/>
      <path class="cls-5" d="M56.41,15.11c.22-1.06-.75-1.16-1.6-.92-.27.08-.88,1.02-.9.25.79-.42,1.1-1,2.12-.79.85.18,1.15.89.38,1.46Z"/>
      <path class="cls-5" d="M49.3,18.96c.67.65-1.5.91-1.79,1.14-.26.21-.55,1.2-1.09,1.26.56-.71,1.12-2.13,2.06-2.36.17-.04.77-.09.82-.04Z"/>
      <path class="cls-5" d="M51.03,32.61c-.13,0-.26,0-.38,0-1.92,0-3.85,0-5.76,0-.05-.34.44-.18.67-.19,1.45-.06,2.97-.02,4.43,0,.33,0,.85-.12,1.05.2Z"/>
      <path class="cls-5" d="M57.76,17.61c-.29-.29,2.16-2.46,2.69-2.4-.33.23-2.41,2.68-2.69,2.4Z"/>
      <path class="cls-5" d="M78.51,17.22c.07.88-.54,1.29-1.34,1.34-.31-.56,1.2-1.5,1.34-1.34Z"/>
      <path class="cls-5" d="M32.64,31.71c-.09.14-.8,1.89-1.22,1.47-.19-.19,1.43-2.16,1.73-2.31.2.63-.38.61-.51.83Z"/>
      <path class="cls-5" d="M130.02,62.98c.3-.43-.46-1.65-.39-1.73.42-.43,1.33,1.42.39,1.73Z"/>
      <path class="cls-5" d="M94.85,28.95c-.05-.39.08-.86,0-1.22-.02-.11-.75-.19-.39-.51.47-.41,1.31,1.43.39,1.73Z"/>
      <path class="cls-5" d="M37.38,19.92c-.12.37-1.37.15-1.54.38-.11.15.65,1.33-.19,1.15-.17-1.41.36-1.99,1.73-1.53Z"/>
      <path class="cls-5" d="M57.37,18.19c.21.2-.81,1.02-.96,1.15-.12-.32.68-1.42.96-1.15Z"/>
      <path class="cls-5" d="M34.5,28.76c.1.1-.25,1.1-.57.77-.1-.1.25-1.1.57-.77Z"/>
      <path class="cls-5" d="M33.92,29.72c.21.21-.17.59-.38.38s.17-.59.38-.38Z"/>
      <path class="cls-5" d="M48.72,21.65c-.07.13-.33-.11-.19-.38.07-.13.33.11.19.38Z"/>
      <path class="cls-5" d="M129.25,67.6c-.07.13-.33-.11-.19-.38.07-.13.33.11.19.38Z"/>
      <path class="cls-5" d="M33.25,32.41c.12.06.12.13,0,.19v-.19Z"/>
      <path class="cls-5" d="M86.39,15.3c.14,1.06-1.04.85-1.67,1.11-.95.4-1.83,1-2.73,1.5l-7.8,6.62.39-.76c-4.39,1.96-3.85-5.94.28-3.17.25.53-1.01.08-1.24.09-1.65.02-2.44,2.23-.53,2.47,1.45.18,4.02-2.55,5.14-3.42,2.48-1.93,4.86-4.14,8.16-4.43Z"/>
      <path class="cls-5" d="M42.28,23.38c.12.06.12.13,0,.19v-.19Z"/>
      <path class="cls-5" d="M31.14,33.57c.12.06.12.13,0,.19v-.19Z"/>
      <path class="cls-5" d="M130.31,66.44c.12.06.12.13,0,.19v-.19Z"/>
      <path class="cls-5" d="M30.94,33.95c.12.06.12.13,0,.19v-.19Z"/>
      <path class="cls-5" d="M55.74,20.3c.12.06.12.13,0,.19v-.19Z"/>
      <path class="cls-5" d="M49.97,19.73c.19.17-.29.49-.29.29l.29-.29Z"/>
      <path class="cls-5" d="M56.32,19.54c.19.17-.29.49-.29.29l.29-.29Z"/>
      <path class="cls-5" d="M57.47,17.8c.12.06.12.13,0,.19v-.19Z"/>
      <path class="cls-3" d="M36.23,23.19c-.03.59-2.49,4.87-3.07,4.23-.01-1.81,1.31-3.73,3.07-4.23Z"/>
      <path class="cls-3" d="M129.83,63.56c.1.68-.09,2.16-.87,2.31-.65.12-1.04,0-1.07-.68-.06-1.33,1.21-.9,1.94-1.63Z"/>
    </g>
  </g>
</svg>