<?xml version="1.0" encoding="UTF-8"?>
<svg id="Layer_2" data-name="Layer 2" xmlns="http://www.w3.org/2000/svg" viewBox="0 0 163.48 139.17">
  <defs>
    <style>
      .cls-1 {
        fill: #166479;
      }

      .cls-2 {
        fill: #e46a8c;
      }
    </style>
  </defs>
  <g id="Layer_1-2" data-name="Layer 1">
    <g>
      <path class="cls-2" d="M3.18,53S100.68.35,107.42,0s25.57,27.38,25.57,27.38c0,0,35.15,55.22,29.96,62.54-5.19,7.32-102.66,46.07-109.49,45.83-6.83-.24-57.26-66.01-50.28-82.76Z"/>
      <g>
        <path class="cls-1" d="M3.47,53.22c2.33-2.31,9.15-5.17,12.45-6.82,23.69-11.87,52.38-25.04,76.73-35.59,18.56-8.04,23.79-13.42,35.77,5.36,8.98,14.09,21.88,35.26,29.41,49.87,8.12,15.75,5.9,19.04-8.64,27.74-28.07,16.79-63.29,30.66-92.99,44.65-4.53.65-11.84,1.96-15.08-1.93C27.14,111.73,12.41,87.41.25,61.65c-1.08-2.39,1.54-6.77,3.21-8.43ZM146.18,53.85c-3.85-7.07-23-45.47-28.24-47.02-4.73-1.4-9.87.21-14.28,1.78-13.04,4.64-26.48,13.29-39.25,19.11-14.17,6.46-28.97,11.88-42.98,18.68-5.06,2.45-18.36,7.6-18.42,13.58l24.89,47.95,118.28-54.07ZM158.32,71.59c-1.17-.82-14.78,5.35-17.23,6.39-34.41,14.59-68.16,31.23-102.28,46.41-1.28,1.25,4.13,10.77,4.64,11.14,6.94,4.93,25.61-4.63,32.74-7.93,22.05-10.23,50.45-23.56,71.17-35.63,9.15-5.33,15.37-8.09,10.95-20.37Z"/>
        <path class="cls-1" d="M142.94,109.01l-4.76,3.49-30.47,11.91c.8-3.71,3.92-4.19,6.98-5.68,8.34-4.06,19.27-7.86,28.26-9.72Z"/>
        <path class="cls-1" d="M149.54,113.41c2.05,1.61-1.48,2.4-2.14,2.76-4.56,2.46-11.52,5.51-16.57,6.04.93-2.81,17.54-9.71,18.71-8.79Z"/>
        <path class="cls-1" d="M105.79,45.95c-5.36-5.96,4.48-9.95,9.31-11.58,5.06-1.71,15.58-4.2,14.65,4.67-.65,6.24-19.55,11.81-23.96,6.91ZM126.13,35.5c-3.68-3.66-15.05,4.39-19.51,5.28.15,3.17,1.37,5.15,4.7,5.09,4.14-.08,20.36-4.83,14.8-10.36Z"/>
        <path class="cls-1" d="M66.95,53.95c2.05,1.71-5.24,4.3-5.86,4.59-10.45,4.94-22.78,10.76-33.37,15.08-1.6.65-2.93,1.6-4.81,1.24,1.27-2.89,4.69-3.99,7.32-5.34,11.73-6.01,24.4-10.89,36.72-15.57Z"/>
        <path class="cls-1" d="M87.88,45.14c.61,2.94-.77,1.89-2.17,2.73-2.29,1.36-5.2,3.22-7.73,3.86.56-3.82,6.6-6.63,9.9-6.6Z"/>
      </g>
    </g>
  </g>
</svg>