<?xml version="1.0" encoding="UTF-8"?>
<svg id="Layer_2" data-name="Layer 2" xmlns="http://www.w3.org/2000/svg" viewBox="0 0 135.73 149.68">
  <defs>
    <style>
      .cls-1 {
        fill: #166479;
      }

      .cls-2 {
        fill: #ccc;
      }

      .cls-3 {
        fill: #b3b3b3;
      }
    </style>
  </defs>
  <g id="Layer_1-2" data-name="Layer 1">
    <g>
      <path class="cls-2" d="M31.5,111.75s2.72,29.61,28.74,33.13c26.02,3.52,61.55-20.97,60.49-46.67-1.07-25.7-46.76-54.41-67.02-39.64-20.26,14.78-27.25,47.66-22.2,53.18Z"/>
      <path class="cls-3" d="M34.13,126.19s69.95,8.32,73.05-54.42c0,0,14.32,15.84,13.88,42.25-.44,26.41-32.48,33.17-38.76,33.55-6.28.38-23.34,11.52-48.17-21.38Z"/>
      <path class="cls-1" d="M63.76,57.56c39.87-6.2,62.3,20.08,57.26,58.75-5.49,42.05-81.68,44.83-89.18,5.44-2.03-10.67.27-36.37,5.05-46.08,5.22-10.6,15.43-16.34,26.87-18.12ZM46.61,68.17c-3.19,2.61-7.31,10.54-8.63,14.6-16.79,51.71,58.62,66.97,75.33,21.33,14.01-38.28-41.79-56.27-66.69-35.94ZM119.63,103.7c-6.63.72-7.09,10.11-2.24,13.48l2.24-13.48ZM37.12,114.2c-.19-.16-3.16-.56-2.99.76,1.94,10.74,5.32,20.91,16.51,24.72-1.39-3.45-.83-9.12-2.24-12-1.03-2.11-4.95-3.16-6.75-5.25-1.89-2.19-4.18-7.93-4.54-8.23ZM106.16,133.68c8.37-1.86,11.67-11.59,5.23-17.96-6.89,5.22-8.48,9.58-5.23,17.96ZM101.63,126.19l-14.86,6.13,2.82,11.25c12.18-1.1,16.88-5.64,12.04-17.38ZM67.14,145.67c-2.1-7.99-5.37-15.58-14.98-14.98,1.31,9.78,3.81,15.7,14.98,14.98ZM83.5,133.83c-1.21-1.06-13.34.44-16.35-.14.22,2.06,2.63,12.88,3.15,13.33,1.92,1.67,13.1-1.01,16.35-1.35-.84-1.93-2.69-11.43-3.15-11.83Z"/>
      <path class="cls-2" d="M1.26,47.54s2.17,23.64,22.95,26.45c20.78,2.81,42.58-24.15,41.73-44.68-.85-20.52-30.77-36.04-46.94-24.24C2.81,16.88-2.77,43.14,1.26,47.54Z"/>
      <path class="cls-3" d="M4.87,61.18s52.32.82,54.66-46.53c0,0,10.81,11.96,10.48,31.89-.33,19.93-24.26,29.71-29,29.99s-17.39,9.48-36.13-15.35Z"/>
      <path class="cls-1" d="M84.42,42.06c-6.23-1.59-2.01-24.39,1.14-24.47,4.63-.11,1.5,6.47,1.39,7.99-.4,5.66-.63,11.08-2.54,16.48Z"/>
      <path class="cls-1" d="M135.73,51.02c-4.48,5.44-10.42,14.4-17.83,15.58-2.44-2.36,12.43-18.53,17.83-15.58Z"/>
      <path class="cls-1" d="M24.56.54c42.72-7.32,68.93,62.51,20.43,74.87-10.68,2.72-31.69,1.02-38.13-9.22C-4.52,48.09-1.73,5.04,24.56.54ZM56.4,13.69c-3.97-3.88-14.9-10.21-20.39-10.96C5.07-1.52-9.16,43.03,15.01,58.05c25.77,16,65.62-20.68,41.4-44.35ZM67.46,35.75c-2.13-2.26-1.96.8-2.36,1.76-2.62,6.39-2.76,9.15,1.78,14.8,2.28-2.51,2.06-14.99.57-16.56ZM59.25,62.93c2.64,1.76,5.68-2.64,5.84-5.38.22-3.73-3.32-6.37-3.55-9.96-.76-.58-5.49,4.84-5.66,6.69-.05.53,2.98,8.39,3.36,8.65ZM17.77,70.06c-2.07-7.92-6.54-10.87-11.24-16.55-2.52,1.76-1.19,2.11-.62,4.11,1.69,5.85,5.04,11.81,11.85,12.44ZM47.45,71.17c1.66,1.19,10.1-3.89,10.45-5.36s-3.62-8.25-5.38-8.59c-.46-.09-8.36,3.1-8.64,3.48-1.35,1.87,3.46,8.03,3.56,10.47ZM29.62,72.44c-1.44-1.23-1.4-11.1-11.24-9.48-1.62,1.43.91,3.67,1.39,5.53.23.89-.89,2.59-.8,2.72,1.56,2.14,23.87,4.12,27.19.65-3.1-2.1-2.44-8.54-6.39-8.81-.66-.05-8.5,1.39-9.02,1.67-2.05,1.1.96,3.92,1.22,5.97.28,2.17-1.35,2.6-2.35,1.75Z"/>
      <path class="cls-1" d="M119.19,21.49c-3.27,6.25-7.24,16.23-14.25,18.91-2.87-1.81,8.36-20.69,14.25-18.91Z"/>
      <path class="cls-1" d="M83.98,123.24c-1.47-4.74-4.43-8.97-8.32-12.04-3.53-2.78-10.57-3.32-11.52-5.71-.84-2.11,2.48-7.15,2.71-10.81.39-6.37-2.2-13.16-3.7-19.27-.35-1.44,1.76-1.97,2.64-2.03.7-.05,7.4,8.13,9.67,10.06,2.19,1.87,10.09,5.7,10.31,6.26.63,1.54-2.25,5.11-2.24,8.99.01,6.9,2.75,15.19,2.52,21.95-.06,1.95.61,1.94-2.07,2.6ZM67.9,83.7c-.08.25,1.35,3.46,1.42,5.05.15,3.39-.87,10.74.32,13.02,1.63,3.1,8.5,5.28,10.05,9.25.61-.63.75-16.8.45-17.62-.33-.9-7.58-7.73-9.05-9-.77-.67-2.24-3.79-3.19-.69Z"/>
      <path class="cls-1" d="M31.01,14.46c-.27,3.19.47,6.44,2.05,9.23,1.43,2.52,5.51,4.56,5.5,6.22,0,1.46-3.22,3.67-4.25,5.81-1.78,3.72-1.88,8.41-2.48,12.43-.14.95-1.53.75-2.08.57-.43-.14-2.45-6.67-3.33-8.37s-4.65-5.87-4.65-6.26c0-1.07,2.59-2.51,3.53-4.83,1.67-4.13,2.05-9.76,3.83-13.74.51-1.15.11-1.31,1.87-1.05ZM31.01,42.03c.11-.13.03-2.4.38-3.37.74-2.06,3.13-6.21,2.97-7.86-.22-2.25-3.8-5.23-3.76-7.98-.52.23-4.54,9.86-4.56,10.43-.02.62,2.65,6.47,3.22,7.59.3.59.41,2.81,1.74,1.19Z"/>
    </g>
  </g>
</svg>