<svg width="40" height="40" viewBox="0 0 40 40" fill="none" xmlns="http://www.w3.org/2000/svg">
<rect x="1" y="1" width="38" height="38" rx="4" stroke="#E46A8C" stroke-width="2"/>
<path d="M23.415 10.6455C24.5373 10.0479 25.8323 9.85708 27.0791 10.1064C28.3255 10.3558 29.4469 11.0297 30.2529 12.0127C31.059 12.996 31.5 14.2285 31.5 15.5C31.5 19.2897 28.6781 22.907 25.5811 25.6943C24.0628 27.0607 22.5399 28.1731 21.3945 28.9443C20.8231 29.3291 20.3479 29.6271 20.0176 29.8281C20.0119 29.8315 20.0056 29.8345 20 29.8379C19.9944 29.8345 19.9881 29.8315 19.9824 29.8281C19.6521 29.6271 19.1769 29.3291 18.6055 28.9443C17.4601 28.1731 15.9372 27.0607 14.4189 25.6943C11.3219 22.907 8.5 19.2897 8.5 15.5C8.5 14.2285 8.94098 12.996 9.74707 12.0127C10.5531 11.0297 11.6745 10.3558 12.9209 10.1064C14.1677 9.85708 15.4627 10.0479 16.585 10.6455C17.7072 11.2431 18.5881 12.2111 19.0771 13.3848C19.2325 13.7573 19.5964 14 20 14C20.4036 14 20.7675 13.7573 20.9229 13.3848C21.4119 12.2111 22.2928 11.2431 23.415 10.6455Z" fill="#E46A8C" stroke="#E46A8C" stroke-width="2" stroke-linecap="round" stroke-linejoin="round"/>
</svg>
