<svg width="41" height="40" viewBox="0 0 41 40" fill="none" xmlns="http://www.w3.org/2000/svg">
<path d="M12.75 36.25C14.1307 36.25 15.25 35.1307 15.25 33.75C15.25 32.3693 14.1307 31.25 12.75 31.25C11.3693 31.25 10.25 32.3693 10.25 33.75C10.25 35.1307 11.3693 36.25 12.75 36.25Z" fill="#F7F1E9"/>
<path d="M29 36.25C30.3807 36.25 31.5 35.1307 31.5 33.75C31.5 32.3693 30.3807 31.25 29 31.25C27.6193 31.25 26.5 32.3693 26.5 33.75C26.5 35.1307 27.6193 36.25 29 36.25Z" fill="#F7F1E9"/>
<path d="M6.85937 11.25H34.8906L30.7656 25.6875C30.6184 26.2115 30.3033 26.6726 29.8686 27.0001C29.4338 27.3275 28.9036 27.5032 28.3594 27.5H13.3906C12.8464 27.5032 12.3162 27.3275 11.8814 27.0001C11.4467 26.6726 11.1316 26.2115 10.9844 25.6875L5.32812 5.90625C5.25338 5.64493 5.09549 5.41509 4.87839 5.25156C4.66129 5.08803 4.3968 4.99971 4.125 5H1.5" stroke="#F7F1E9" stroke-width="3" stroke-linecap="round" stroke-linejoin="round"/>
</svg>
