<svg width="151" height="78" viewBox="0 0 151 78" fill="none" xmlns="http://www.w3.org/2000/svg">
<g filter="url(#filter0_d_9_79)">
<path d="M12.16 33.64C9.14668 33.64 6.93335 32.88 5.52001 31.36C4.10668 29.84 3.40001 27.32 3.40001 23.8C3.40001 21 3.86668 17.9867 4.80001 14.76C5.76001 11.5333 7.28001 8.77333 9.36002 6.48C11.4667 4.16 14.1333 3 17.36 3C19.36 3 20.9733 3.44 22.2 4.32C23.4267 5.2 24.04 6.54667 24.04 8.36C24.04 9.50667 23.8133 10.4133 23.36 11.08C22.9067 11.72 22.2 12.04 21.24 12.04C20.28 12.04 19.52 11.6933 18.96 11C19.44 10.76 19.8667 10.28 20.24 9.56C20.6133 8.84 20.8 8.09333 20.8 7.32C20.8 6.6 20.6 6.01333 20.2 5.56C19.8267 5.10667 19.2133 4.88 18.36 4.88C16.9467 4.88 15.6 5.85333 14.32 7.8C13.04 9.72 12 12.1467 11.2 15.08C10.4267 18.0133 10.04 20.84 10.04 23.56C10.04 25.5867 10.3867 27.1333 11.08 28.2C11.7733 29.2667 13.0267 29.8 14.84 29.8C16.4133 29.8 17.8667 29.4533 19.2 28.76C20.5333 28.0667 21.68 27.08 22.64 25.8L23.56 26.2C22.8933 27.88 21.9067 29.28 20.6 30.4C19.2933 31.52 17.8933 32.3467 16.4 32.88C14.9067 33.3867 13.4933 33.64 12.16 33.64ZM27.3228 33.24C25.8028 33.24 24.5362 32.72 23.5228 31.68C22.5095 30.64 22.0028 29.0133 22.0028 26.8C22.0028 24.8267 22.3895 22.76 23.1628 20.6C23.9628 18.4133 25.1362 16.5733 26.6828 15.08C28.2562 13.56 30.1228 12.8 32.2828 12.8C33.3762 12.8 34.1895 12.9867 34.7228 13.36C35.2562 13.7333 35.5228 14.2267 35.5228 14.84V15.12L35.9628 13H41.7228L38.8428 26.6C38.7362 27 38.6828 27.4267 38.6828 27.88C38.6828 29.0267 39.2295 29.6 40.3228 29.6C41.0695 29.6 41.7095 29.2533 42.2428 28.56C42.8028 27.8667 43.2428 26.96 43.5628 25.84H45.2428C44.2562 28.72 43.0295 30.68 41.5628 31.72C40.1228 32.7333 38.6695 33.24 37.2028 33.24C36.0828 33.24 35.1762 32.9333 34.4828 32.32C33.8162 31.68 33.4162 30.76 33.2828 29.56C32.5095 30.6533 31.6428 31.5467 30.6828 32.24C29.7495 32.9067 28.6295 33.24 27.3228 33.24ZM29.9228 29.36C30.5895 29.36 31.2428 29.0533 31.8828 28.44C32.5495 27.8 33.0028 26.9333 33.2428 25.84L35.1628 16.8C35.1628 16.4533 35.0295 16.12 34.7628 15.8C34.4962 15.4533 34.0828 15.28 33.5228 15.28C32.4562 15.28 31.4962 15.9067 30.6428 17.16C29.7895 18.3867 29.1228 19.88 28.6428 21.64C28.1628 23.3733 27.9228 24.9067 27.9228 26.24C27.9228 27.5733 28.1095 28.4267 28.4828 28.8C28.8828 29.1733 29.3628 29.36 29.9228 29.36ZM58.0175 33.24C56.3908 33.24 55.1908 32.8133 54.4175 31.96C53.6708 31.08 53.2975 30 53.2975 28.72C53.2975 28.16 53.3642 27.5333 53.4975 26.84C53.6308 26.12 53.7642 25.4267 53.8975 24.76C54.0575 24.0933 54.1642 23.6667 54.2175 23.48C54.4308 22.5467 54.6308 21.6267 54.8175 20.72C55.0042 19.8133 55.0975 19.08 55.0975 18.52C55.0975 17.16 54.6175 16.48 53.6575 16.48C52.9642 16.48 52.3508 16.8267 51.8175 17.52C51.2842 18.1867 50.8575 19.0667 50.5375 20.16L47.8175 33H42.0575L46.2975 13H52.0575L51.6175 15.08C52.9508 13.5867 54.5108 12.84 56.2975 12.84C57.6575 12.84 58.7375 13.2133 59.5375 13.96C60.3375 14.7067 60.7375 15.84 60.7375 17.36C60.7375 18.1333 60.6442 19 60.4575 19.96C60.2708 20.8933 60.0042 22.04 59.6575 23.4C59.4442 24.2267 59.2442 25.04 59.0575 25.84C58.8975 26.6133 58.8175 27.2267 58.8175 27.68C58.8175 28.2133 58.9375 28.6267 59.1775 28.92C59.4175 29.2133 59.8308 29.36 60.4175 29.36C61.2175 29.36 61.8575 29.08 62.3375 28.52C62.8175 27.9333 63.2975 27.04 63.7775 25.84H65.4575C64.4708 28.7733 63.3242 30.7467 62.0175 31.76C60.7375 32.7467 59.4042 33.24 58.0175 33.24ZM68.5728 33.24C67.0528 33.24 65.7862 32.72 64.7728 31.68C63.7595 30.64 63.2528 29.0133 63.2528 26.8C63.2528 24.8267 63.6395 22.76 64.4128 20.6C65.2128 18.4133 66.3862 16.5733 67.9328 15.08C69.5062 13.56 71.3728 12.8 73.5328 12.8C74.6262 12.8 75.4395 12.9867 75.9728 13.36C76.5062 13.7333 76.7728 14.2267 76.7728 14.84V15L78.7328 5.8L84.6528 5L80.0528 26.6C79.9462 27 79.8928 27.4267 79.8928 27.88C79.8928 28.4133 80.0128 28.8 80.2528 29.04C80.5195 29.2533 80.9462 29.36 81.5328 29.36C82.2795 29.36 82.9195 29.04 83.4528 28.4C84.0128 27.76 84.4528 26.9067 84.7728 25.84H86.4528C84.8262 30.6133 82.1462 33 78.4128 33C77.3195 33 76.4262 32.7067 75.7328 32.12C75.0662 31.5333 74.6528 30.68 74.4928 29.56C73.7995 30.6267 72.9595 31.5067 71.9728 32.2C71.0128 32.8933 69.8795 33.24 68.5728 33.24ZM71.1728 29.36C71.8128 29.36 72.4528 29.0667 73.0928 28.48C73.7595 27.8933 74.2128 27.08 74.4528 26.04V25.84L76.4128 16.68C76.1728 15.7467 75.6262 15.28 74.7728 15.28C73.7062 15.28 72.7462 15.9067 71.8928 17.16C71.0395 18.3867 70.3728 19.88 69.8928 21.64C69.4128 23.3733 69.1728 24.9067 69.1728 26.24C69.1728 27.5733 69.3595 28.4267 69.7328 28.8C70.1328 29.1733 70.6128 29.36 71.1728 29.36ZM91.0285 43C89.7751 43 88.6685 42.5867 87.7085 41.76C86.7751 40.96 86.3085 39.9333 86.3085 38.68C86.3085 37.5067 86.6018 36.5467 87.1885 35.8C87.7751 35.0533 88.5351 34.4667 89.4685 34.04C90.4018 33.6133 91.6551 33.16 93.2285 32.68L93.6285 30.92C92.2685 32.4667 90.6418 33.24 88.7485 33.24C87.4685 33.24 86.4285 32.84 85.6285 32.04C84.8551 31.24 84.4685 30.04 84.4685 28.44C84.4685 27.7733 84.5751 26.9067 84.7885 25.84L87.5085 13H93.2685L90.3885 26.6C90.3085 26.92 90.2685 27.2533 90.2685 27.6C90.2685 28.7733 90.6685 29.36 91.4685 29.36C92.2151 29.36 92.8551 29.0533 93.3885 28.44C93.9218 27.8 94.3485 26.9333 94.6685 25.84L97.3885 13H103.188L98.3085 36.2C97.7751 38.76 96.8285 40.5333 95.4685 41.52C94.1351 42.5067 92.6551 43 91.0285 43ZM90.1085 39.44C90.5885 39.44 91.0418 39.1867 91.4685 38.68C91.8951 38.2 92.2285 37.4133 92.4685 36.32L92.9485 33.96C91.5351 34.44 90.4418 35 89.6685 35.64C88.8951 36.28 88.5085 37.1067 88.5085 38.12C88.5085 38.44 88.6685 38.7333 88.9885 39C89.3085 39.2933 89.6818 39.44 90.1085 39.44ZM11.36 72.56C10.3733 72.56 9.50668 72.48 8.76002 72.32C8.01335 72.16 7.36001 71.7733 6.80001 71.16C6.26668 70.5467 6.00001 69.6 6.00001 68.32C6.00001 66.5333 6.53335 64.1333 7.60001 61.12C8.69335 58.1067 10.12 55.08 11.88 52.04C10.5467 52.12 9.49335 52.32 8.72002 52.64C7.94668 52.96 7.44001 53.4533 7.20001 54.12C7.30668 54.12 7.41335 54.2533 7.52002 54.52C7.65335 54.7867 7.72001 55.0667 7.72001 55.36C7.72001 55.84 7.50668 56.2267 7.08002 56.52C6.65335 56.7867 6.12001 56.92 5.48001 56.92C4.73335 56.92 4.13335 56.72 3.68001 56.32C3.22668 55.92 3.00001 55.3467 3.00001 54.6C3.00001 53.6933 3.34668 52.8667 4.04001 52.12C4.76001 51.3733 5.74668 50.7867 7.00001 50.36C8.25335 49.9067 9.64001 49.68 11.16 49.68C11.72 49.68 12.4133 49.72 13.24 49.8C15.4267 46.3333 17.7333 43.5067 20.16 41.32C22.6133 39.1067 24.9467 38 27.16 38C28.44 38 29.4933 38.1867 30.32 38.56L24.04 68H18.28L21.36 53.48C20.3733 53.0267 19.4667 52.6933 18.64 52.48C17.8133 52.2667 16.9333 52.12 16 52.04C14.48 55.32 13.2267 58.68 12.24 62.12C11.28 65.5333 10.8 68.2667 10.8 70.32C10.8 71.3333 10.9867 72.08 11.36 72.56ZM24.04 40.84C22.8933 41.4533 21.6933 42.6 20.44 44.28C19.2133 45.9333 18.0133 47.9467 16.84 50.32C18.76 50.6933 20.3867 51.16 21.72 51.72L24.04 40.84ZM33.9188 68.24C32.3721 68.24 31.1588 67.8533 30.2788 67.08C29.4254 66.28 28.9988 65.0933 28.9988 63.52C28.9988 62.88 29.0654 62.24 29.1988 61.6L32.0788 48H37.8388L34.9588 61.6C34.8254 62.2667 34.7588 62.7467 34.7588 63.04C34.7588 63.92 35.2121 64.36 36.1188 64.36C37.3454 64.36 38.4788 63.5867 39.5188 62.04C40.5854 60.4933 41.4388 58.6533 42.0788 56.52C42.7188 54.3867 43.0388 52.5467 43.0388 51C42.9854 51.1333 42.8121 51.24 42.5188 51.32C42.2254 51.3733 41.9721 51.4 41.7588 51.4C41.3054 51.4 40.9454 51.1867 40.6788 50.76C40.4388 50.3333 40.3188 49.8667 40.3188 49.36C40.3188 48.72 40.5188 48.2 40.9188 47.8C41.3454 47.4 41.9721 47.2 42.7988 47.2C43.6788 47.2 44.3188 47.5333 44.7188 48.2C45.1188 48.84 45.3188 49.6667 45.3188 50.68C45.3188 53.08 44.9054 55.6533 44.0788 58.4C43.2521 61.12 41.9854 63.44 40.2788 65.36C38.5721 67.28 36.4521 68.24 33.9188 68.24ZM51.6413 68.24C49.6679 68.24 48.1346 67.7333 47.0413 66.72C45.9479 65.68 45.4013 64.0667 45.4013 61.88C45.4013 60.04 45.7613 58.0133 46.4813 55.8C47.2013 53.5867 48.3746 51.68 50.0013 50.08C51.6279 48.4533 53.6946 47.64 56.2013 47.64C59.1346 47.64 60.6013 48.92 60.6013 51.48C60.6013 52.9733 60.1746 54.3467 59.3213 55.6C58.4679 56.8533 57.3346 57.8667 55.9213 58.64C54.5079 59.3867 53.0013 59.8133 51.4013 59.92C51.3479 60.72 51.3213 61.2533 51.3213 61.52C51.3213 62.8267 51.5479 63.72 52.0013 64.2C52.4546 64.6533 53.1879 64.88 54.2013 64.88C55.6413 64.88 56.8679 64.5467 57.8813 63.88C58.9213 63.2133 60.0546 62.2 61.2813 60.84H62.6413C59.6813 65.7733 56.0146 68.24 51.6413 68.24ZM51.7213 58C52.7079 57.9467 53.6413 57.6 54.5213 56.96C55.4279 56.32 56.1479 55.5067 56.6813 54.52C57.2413 53.5333 57.5213 52.4933 57.5213 51.4C57.5213 50.3067 57.1879 49.76 56.5213 49.76C55.5613 49.76 54.6146 50.6 53.6813 52.28C52.7746 53.96 52.1213 55.8667 51.7213 58ZM75.7128 68.24C74.0862 68.24 72.8862 67.8133 72.1128 66.96C71.3662 66.08 70.9928 65 70.9928 63.72C70.9928 63.16 71.0595 62.5333 71.1928 61.84C71.3262 61.12 71.4595 60.4267 71.5928 59.76C71.7528 59.0933 71.8595 58.6667 71.9128 58.48C72.1262 57.5467 72.3262 56.6267 72.5128 55.72C72.6995 54.8133 72.7928 54.08 72.7928 53.52C72.7928 52.16 72.3128 51.48 71.3528 51.48C70.6595 51.48 70.0462 51.8267 69.5128 52.52C68.9795 53.1867 68.5528 54.0667 68.2328 55.16L65.5128 68H59.7528L63.9928 48H69.7528L69.3128 50.08C70.6462 48.5867 72.2062 47.84 73.9928 47.84C75.3528 47.84 76.4328 48.2133 77.2328 48.96C78.0328 49.7067 78.4328 50.84 78.4328 52.36C78.4328 53.1333 78.3395 54 78.1528 54.96C77.9662 55.8933 77.6995 57.04 77.3528 58.4C77.1395 59.2267 76.9395 60.04 76.7528 60.84C76.5928 61.6133 76.5128 62.2267 76.5128 62.68C76.5128 63.2133 76.6328 63.6267 76.8728 63.92C77.1128 64.2133 77.5262 64.36 78.1128 64.36C78.9128 64.36 79.5528 64.08 80.0328 63.52C80.5128 62.9333 80.9928 62.04 81.4728 60.84H83.1528C82.1662 63.7733 81.0195 65.7467 79.7128 66.76C78.4328 67.7467 77.0995 68.24 75.7128 68.24ZM85.4281 68.24C84.1481 68.24 83.1081 67.84 82.3081 67.04C81.5348 66.24 81.1481 65.04 81.1481 63.44C81.1481 62.7733 81.2548 61.9067 81.4681 60.84L84.1881 48H89.9481L87.0681 61.6C86.9881 62 86.9481 62.3733 86.9481 62.72C86.9481 63.8133 87.3481 64.36 88.1481 64.36C88.8948 64.36 89.5348 64.0533 90.0681 63.44C90.6015 62.8 91.0281 61.9333 91.3481 60.84L94.0681 48H99.8281L96.9481 61.6C96.8415 62 96.7881 62.4267 96.7881 62.88C96.7881 63.4133 96.9081 63.8 97.1481 64.04C97.4148 64.2533 97.8415 64.36 98.4281 64.36C99.1748 64.36 99.8148 64.04 100.348 63.4C100.908 62.76 101.348 61.9067 101.668 60.84H103.348C102.361 63.72 101.135 65.68 99.6681 66.72C98.2281 67.7333 96.7748 68.24 95.3081 68.24C94.1615 68.24 93.2415 67.92 92.5481 67.28C91.8815 66.64 91.4815 65.6933 91.3481 64.44C90.4415 65.9067 89.4815 66.9067 88.4681 67.44C87.4815 67.9733 86.4681 68.24 85.4281 68.24ZM107.303 68.24C105.357 68.24 103.837 67.7333 102.743 66.72C101.65 65.68 101.103 64.0667 101.103 61.88C101.103 60.04 101.463 58.0133 102.183 55.8C102.903 53.5867 104.077 51.68 105.703 50.08C107.33 48.4533 109.397 47.64 111.903 47.64C114.837 47.64 116.303 48.92 116.303 51.48C116.303 52.9733 115.877 54.3467 115.023 55.6C114.17 56.8533 113.037 57.8667 111.623 58.64C110.21 59.3867 108.703 59.8133 107.103 59.92C107.05 60.5067 107.023 60.9067 107.023 61.12C107.023 63.3333 107.85 64.44 109.503 64.44C110.25 64.44 111.05 64.24 111.903 63.84C112.757 63.44 113.53 62.9333 114.223 62.32C113.503 66.2667 111.197 68.24 107.303 68.24ZM107.383 58C108.397 57.9733 109.343 57.64 110.223 57C111.13 56.36 111.85 55.5467 112.383 54.56C112.943 53.5467 113.223 52.4933 113.223 51.4C113.223 50.3067 112.89 49.76 112.223 49.76C111.29 49.76 110.357 50.6133 109.423 52.32C108.517 54 107.837 55.8933 107.383 58Z" fill="#F7F1E9"/>
</g>
<g filter="url(#filter1_d_9_79)">
<g filter="url(#filter2_i_9_79)">
<ellipse cx="11.5998" cy="11.5462" rx="11.5998" ry="11.5462" transform="matrix(0.918278 0.395937 -0.400481 0.916305 112.714 0)" fill="#F7F1E9"/>
</g>
<g filter="url(#filter3_i_9_79)">
<mask id="mask0_9_79" style="mask-type:alpha" maskUnits="userSpaceOnUse" x="107" y="3" width="24" height="24">
<path d="M123.165 5.05087C128.796 7.47889 131.376 13.979 128.934 19.567C126.492 25.1551 119.949 27.7227 114.317 25.2946C108.686 22.8665 106.107 16.3655 108.549 10.7775C110.991 5.18972 117.534 2.62297 123.165 5.05087Z" fill="#F7F1E9" stroke="#DA7994"/>
</mask>
<g mask="url(#mask0_9_79)">
<g filter="url(#filter4_f_9_79)">
<path d="M119.462 15.1338C119.462 15.1338 122.164 16.9974 124.824 14.128C127.485 11.2586 130.187 13.1222 130.187 13.1222" stroke="#E46A8C" stroke-width="4" stroke-linecap="round"/>
</g>
<g filter="url(#filter5_f_9_79)">
<path d="M119.36 15.458C119.36 15.458 119.183 18.7206 123.039 19.4612C126.895 20.2019 126.719 23.4645 126.719 23.4645" stroke="#E46A8C" stroke-width="4" stroke-linecap="round"/>
</g>
<g filter="url(#filter6_f_9_79)">
<path d="M119.029 15.5423C119.029 15.5423 116.141 17.1076 117.533 20.7553C118.925 24.403 116.037 25.9683 116.037 25.9683" stroke="#E46A8C" stroke-width="4" stroke-linecap="round"/>
</g>
<g filter="url(#filter7_f_9_79)">
<path d="M118.782 15.3068C118.782 15.3068 115.924 13.6892 113.531 16.7821C111.138 19.875 108.28 18.2574 108.28 18.2574" stroke="#E46A8C" stroke-width="4" stroke-linecap="round"/>
</g>
<g filter="url(#filter8_f_9_79)">
<path d="M118.855 14.9749C118.855 14.9749 118.739 11.7096 114.832 11.3124C110.925 10.9151 110.808 7.64985 110.808 7.64985" stroke="#E46A8C" stroke-width="4" stroke-linecap="round"/>
</g>
<g filter="url(#filter9_f_9_79)">
<path d="M119.177 14.8616C119.177 14.8616 121.913 13.0477 120.2 9.53724C118.488 6.02681 121.224 4.21286 121.224 4.21286" stroke="#E46A8C" stroke-width="4" stroke-linecap="round"/>
</g>
</g>
</g>
<rect width="4.51103" height="17.3193" rx="2.25551" transform="matrix(0.918278 0.395937 -0.400481 0.916305 112.085 25.5748)" fill="#E46A8C"/>
</g>
<defs>
<filter id="filter0_d_9_79" x="0" y="2" width="119.303" height="75.56" filterUnits="userSpaceOnUse" color-interpolation-filters="sRGB">
<feFlood flood-opacity="0" result="BackgroundImageFix"/>
<feColorMatrix in="SourceAlpha" type="matrix" values="0 0 0 0 0 0 0 0 0 0 0 0 0 0 0 0 0 0 127 0" result="hardAlpha"/>
<feOffset dy="2"/>
<feGaussianBlur stdDeviation="1.5"/>
<feComposite in2="hardAlpha" operator="out"/>
<feColorMatrix type="matrix" values="0 0 0 0 0 0 0 0 0 0 0 0 0 0 0 0 0 0 0.25 0"/>
<feBlend mode="normal" in2="BackgroundImageFix" result="effect1_dropShadow_9_79"/>
<feBlend mode="normal" in="SourceGraphic" in2="effect1_dropShadow_9_79" result="shape"/>
</filter>
<filter id="filter1_d_9_79" x="101.864" y="3.63599" width="32.493" height="46.8868" filterUnits="userSpaceOnUse" color-interpolation-filters="sRGB">
<feFlood flood-opacity="0" result="BackgroundImageFix"/>
<feColorMatrix in="SourceAlpha" type="matrix" values="0 0 0 0 0 0 0 0 0 0 0 0 0 0 0 0 0 0 127 0" result="hardAlpha"/>
<feOffset dy="4"/>
<feGaussianBlur stdDeviation="2"/>
<feComposite in2="hardAlpha" operator="out"/>
<feColorMatrix type="matrix" values="0 0 0 0 0 0 0 0 0 0 0 0 0 0 0 0 0 0 0.25 0"/>
<feBlend mode="normal" in2="BackgroundImageFix" result="effect1_dropShadow_9_79"/>
<feBlend mode="normal" in="SourceGraphic" in2="effect1_dropShadow_9_79" result="shape"/>
</filter>
<filter id="filter2_i_9_79" x="107.126" y="3.63599" width="23.2303" height="23.0733" filterUnits="userSpaceOnUse" color-interpolation-filters="sRGB">
<feFlood flood-opacity="0" result="BackgroundImageFix"/>
<feBlend mode="normal" in="SourceGraphic" in2="BackgroundImageFix" result="shape"/>
<feColorMatrix in="SourceAlpha" type="matrix" values="0 0 0 0 0 0 0 0 0 0 0 0 0 0 0 0 0 0 127 0" result="hardAlpha"/>
<feOffset/>
<feGaussianBlur stdDeviation="1.85"/>
<feComposite in2="hardAlpha" operator="arithmetic" k2="-1" k3="1"/>
<feColorMatrix type="matrix" values="0 0 0 0 0.894231 0 0 0 0 0.890546 0 0 0 0 0.885632 0 0 0 1 0"/>
<feBlend mode="normal" in2="shape" result="effect1_innerShadow_9_79"/>
</filter>
<filter id="filter3_i_9_79" x="107.126" y="3.63599" width="23.2303" height="23.0733" filterUnits="userSpaceOnUse" color-interpolation-filters="sRGB">
<feFlood flood-opacity="0" result="BackgroundImageFix"/>
<feBlend mode="normal" in="SourceGraphic" in2="BackgroundImageFix" result="shape"/>
<feColorMatrix in="SourceAlpha" type="matrix" values="0 0 0 0 0 0 0 0 0 0 0 0 0 0 0 0 0 0 127 0" result="hardAlpha"/>
<feOffset/>
<feGaussianBlur stdDeviation="2.6"/>
<feComposite in2="hardAlpha" operator="arithmetic" k2="-1" k3="1"/>
<feColorMatrix type="matrix" values="0 0 0 0 0.826923 0 0 0 0 0.202755 0 0 0 0 0.379603 0 0 0 0.4 0"/>
<feBlend mode="normal" in2="shape" result="effect1_innerShadow_9_79"/>
</filter>
<filter id="filter4_f_9_79" x="117.158" y="10.2311" width="15.3328" height="7.79385" filterUnits="userSpaceOnUse" color-interpolation-filters="sRGB">
<feFlood flood-opacity="0" result="BackgroundImageFix"/>
<feBlend mode="normal" in="SourceGraphic" in2="BackgroundImageFix" result="shape"/>
<feGaussianBlur stdDeviation="0.15" result="effect1_foregroundBlur_9_79"/>
</filter>
<filter id="filter5_f_9_79" x="117.054" y="13.1628" width="11.971" height="12.5969" filterUnits="userSpaceOnUse" color-interpolation-filters="sRGB">
<feFlood flood-opacity="0" result="BackgroundImageFix"/>
<feBlend mode="normal" in="SourceGraphic" in2="BackgroundImageFix" result="shape"/>
<feGaussianBlur stdDeviation="0.15" result="effect1_foregroundBlur_9_79"/>
</filter>
<filter id="filter6_f_9_79" x="113.53" y="13.0493" width="8.00659" height="15.4121" filterUnits="userSpaceOnUse" color-interpolation-filters="sRGB">
<feFlood flood-opacity="0" result="BackgroundImageFix"/>
<feBlend mode="normal" in="SourceGraphic" in2="BackgroundImageFix" result="shape"/>
<feGaussianBlur stdDeviation="0.15" result="effect1_foregroundBlur_9_79"/>
</filter>
<filter id="filter7_f_9_79" x="105.976" y="12.5871" width="15.1096" height="8.38992" filterUnits="userSpaceOnUse" color-interpolation-filters="sRGB">
<feFlood flood-opacity="0" result="BackgroundImageFix"/>
<feBlend mode="normal" in="SourceGraphic" in2="BackgroundImageFix" result="shape"/>
<feGaussianBlur stdDeviation="0.15" result="effect1_foregroundBlur_9_79"/>
</filter>
<filter id="filter8_f_9_79" x="108.503" y="5.35546" width="12.6576" height="11.9138" filterUnits="userSpaceOnUse" color-interpolation-filters="sRGB">
<feFlood flood-opacity="0" result="BackgroundImageFix"/>
<feBlend mode="normal" in="SourceGraphic" in2="BackgroundImageFix" result="shape"/>
<feGaussianBlur stdDeviation="0.15" result="effect1_foregroundBlur_9_79"/>
</filter>
<filter id="filter9_f_9_79" x="116.87" y="1.91942" width="6.66042" height="15.2356" filterUnits="userSpaceOnUse" color-interpolation-filters="sRGB">
<feFlood flood-opacity="0" result="BackgroundImageFix"/>
<feBlend mode="normal" in="SourceGraphic" in2="BackgroundImageFix" result="shape"/>
<feGaussianBlur stdDeviation="0.15" result="effect1_foregroundBlur_9_79"/>
</filter>
</defs>
</svg>
