<svg width="712" height="707" viewBox="0 0 712 707" fill="none" xmlns="http://www.w3.org/2000/svg">
<path d="M345.897 7.81714C348.228 -2.60564 363.083 -2.60563 365.414 7.81715L397.471 151.128C399.273 159.187 409.515 161.711 414.856 155.413L509.841 43.4151C516.749 35.2696 529.902 42.173 527.123 52.4854L488.908 194.278C486.759 202.252 494.654 209.246 502.31 206.152L638.463 151.124C648.365 147.122 656.803 159.347 649.55 167.187L549.818 274.979C544.209 281.04 547.95 290.903 556.167 291.721L702.297 306.269C712.925 307.327 714.715 322.074 704.65 325.645L566.248 374.742C558.465 377.503 557.193 387.973 564.09 392.517L686.72 473.309C695.639 479.185 690.371 493.074 679.799 491.558L534.434 470.713C526.259 469.541 520.267 478.221 524.262 485.449L595.3 613.976C600.466 623.324 589.347 633.174 580.691 626.919L461.664 540.907C454.97 536.07 445.631 540.971 445.809 549.228L448.98 696.046C449.211 706.724 434.788 710.278 430.03 700.717L364.608 569.242C360.929 561.848 350.381 561.848 346.703 569.242L281.281 700.717C276.523 710.278 262.1 706.723 262.33 696.046L265.502 549.228C265.68 540.971 256.341 536.07 249.647 540.907L130.62 626.919C121.963 633.174 110.844 623.324 116.011 613.976L187.049 485.449C191.043 478.221 185.052 469.541 176.877 470.713L31.5119 491.558C20.9397 493.074 15.6721 479.185 24.5908 473.309L147.221 392.517C154.117 387.973 152.846 377.503 145.063 374.742L6.66116 325.645C-3.40461 322.074 -1.61406 307.327 9.01375 306.269L155.143 291.721C163.361 290.902 167.101 281.04 161.493 274.979L61.7608 167.187C54.5074 159.347 62.9459 147.122 72.8481 151.124L209.001 206.152C216.657 209.246 224.552 202.252 222.403 194.278L184.188 52.4854C181.409 42.173 194.562 35.2696 201.47 43.4151L296.455 155.413C301.796 161.711 312.037 159.187 313.84 151.128L345.897 7.81714Z" fill="#E46A8C" fill-opacity="0.23"/>
</svg>
